g fxMesh_Sculptor01Lv2trail1
v -1.091508 1.731043 0.5281802
v -1.294418 1.44875 0.6955793
v -2.220036 1.632917 0.1419628
v -1.855124 2.021382 -0.1965968
v -2.445444 1.232206 0.5396128
v -1.40273 1.183585 0.8694817
v -2.509903 0.8368331 0.9805106
v -1.422426 0.9630453 1.029051
v -2.380634 0.4767687 1.443479
v -1.371996 0.8013861 1.158714
v -2.034814 0.2064099 1.881714
v -1.260276 0.6863264 1.270335
v -1.500865 0.07712578 2.234055
v -1.041469 0.6076598 1.392573
v -0.8253723 0.098498 2.474329
v -0.648558 0.5996144 1.517935
v -0.01606053 0.2650283 2.605421
v -0.05481602 0.7133468 1.607355
v 0.8432339 0.5832766 2.561728
v 0.4681489 0.9133574 1.583792
v 1.508536 1.002455 2.28678
v 0.8212082 1.155268 1.444638
v 1.955745 1.467422 1.844151
v 1.060535 1.442178 1.212405
v 2.202301 1.930982 1.30538
v 1.198024 1.768404 0.90147
v 2.279343 2.365508 0.7233247
v 1.231136 2.107391 0.5460514
v 2.208985 2.751534 0.1370412
v 1.166723 2.424074 0.1946972
v 1.998407 3.070313 -0.4210054
v 1.026658 2.682897 -0.09753458
v 1.627203 3.299758 -0.9152318
v 0.8601722 2.851323 -0.2801893
v -1.855124 2.021382 -0.1965968
v -2.220036 1.632917 0.1419628
v -1.265612 1.345053 0.5908735
v -1.054134 1.624318 0.4306694
v -1.385569 1.079799 0.7619386
v -2.445444 1.232206 0.5396128
v -1.417243 0.8541943 0.9245439
v -2.509903 0.8368331 0.9805106
v -1.374031 0.6823406 1.064775
v -2.380634 0.4767687 1.443479
v -1.259075 0.5560263 1.192531
v -2.034814 0.2064099 1.881714
v -1.027658 0.47102 1.329636
v -1.500865 0.07712578 2.234055
v -0.6199579 0.4622297 1.464084
v -0.8253723 0.098498 2.474329
v -0.01358254 0.5777962 1.557328
v -0.01606053 0.2650283 2.605421
v 0.5228812 0.7822214 1.532615
v 0.8432339 0.5832766 2.561728
v 0.8859966 1.032388 1.385602
v 1.508536 1.002455 2.28678
v 1.127492 1.32699 1.142476
v 1.955745 1.467422 1.844151
v 1.260302 1.657616 0.8216115
v 2.202301 1.930982 1.30538
v 1.284384 1.997585 0.4589212
v 2.279343 2.365508 0.7233247
v 1.208359 2.312408 0.1035764
v 2.208985 2.751534 0.1370412
v 1.055702 2.566647 -0.1885692
v 1.998407 3.070313 -0.4210054
v 0.8776929 2.728519 -0.3632999
v 1.627203 3.299758 -0.9152318
vt 1 1
vt 1 0.9425525
vt 0 0.9425525
vt 0 1
vt 0 0.8892752
vt 1 0.8892752
vt 0 0.8400983
vt 1 0.8400983
vt 0 0.7938474
vt 1 0.7938474
vt 0 0.747286
vt 1 0.747286
vt 0 0.6949425
vt 1 0.6949425
vt 0 0.6304624
vt 1 0.6304624
vt 0 0.5480471
vt 1 0.5480471
vt 0 0.4638969
vt 1 0.4638969
vt 0 0.3907794
vt 1 0.3907794
vt 0 0.3212147
vt 1 0.3212147
vt 0 0.2517275
vt 1 0.2517275
vt 0 0.182413
vt 1 0.182413
vt 0 0.1154739
vt 1 0.1154739
vt 0 0.0538789
vt 1 0.0538789
vt 0 0
vt 1 0
vt 0 1
vt 0 0.9425525
vt 1 0.9425525
vt 1 1
vt 1 0.8892752
vt 0 0.8892752
vt 1 0.8400983
vt 0 0.8400983
vt 1 0.7938474
vt 0 0.7938474
vt 1 0.747286
vt 0 0.747286
vt 1 0.6949425
vt 0 0.6949425
vt 1 0.6304624
vt 0 0.6304624
vt 1 0.5480471
vt 0 0.5480471
vt 1 0.4638969
vt 0 0.4638969
vt 1 0.3907794
vt 0 0.3907794
vt 1 0.3212147
vt 0 0.3212147
vt 1 0.2517275
vt 0 0.2517275
vt 1 0.182413
vt 0 0.182413
vt 1 0.1154739
vt 0 0.1154739
vt 1 0.0538789
vt 0 0.0538789
vt 1 0
vt 0 0
vn -0.2804551 0.717968 0.6370769
vn -0.2519593 0.7078786 0.6598669
vn -0.2522716 0.707994 0.6596238
vn -0.280455 0.717968 0.6370769
vn -0.1868844 0.6992576 0.6900095
vn -0.1862931 0.6992872 0.6901394
vn -0.1163591 0.7184612 0.6857653
vn -0.1156754 0.7188168 0.6855083
vn -0.06911968 0.7660539 0.6390492
vn -0.06886682 0.7666155 0.6384027
vn -0.07285041 0.8248357 0.5606595
vn -0.07297336 0.8250369 0.5603473
vn -0.1273046 0.8669651 0.481835
vn -0.1271356 0.8669018 0.4819936
vn -0.2024336 0.8804143 0.4288255
vn -0.2021436 0.8804137 0.4289635
vn -0.2715915 0.8719875 0.4072788
vn -0.2727894 0.8716729 0.4071515
vn -0.333061 0.845508 0.4173566
vn -0.3330094 0.8455402 0.4173325
vn -0.3743033 0.8068185 0.4571006
vn -0.3741377 0.807095 0.4567479
vn -0.3774312 0.7723238 0.5109418
vn -0.3775823 0.7725595 0.5104737
vn -0.3432399 0.7540796 0.5599557
vn -0.343591 0.754141 0.5596575
vn -0.2825386 0.754233 0.5927095
vn -0.2828669 0.7541925 0.5926045
vn -0.2058579 0.7713009 0.6022604
vn -0.2060012 0.7712573 0.602267
vn -0.1276391 0.8051782 0.579134
vn -0.1275285 0.8052416 0.5790703
vn -0.08997637 0.8257318 0.5568404
vn -0.08997637 0.8257318 0.5568404
vn 0.1714443 -0.6802831 -0.7126161
vn 0.1339381 -0.6780487 -0.7227105
vn 0.1341341 -0.6780631 -0.7226607
vn 0.1714443 -0.6802831 -0.7126162
vn 0.05414412 -0.6869541 -0.724681
vn 0.05405803 -0.6869775 -0.7246652
vn -0.02145066 -0.7282327 -0.6849941
vn -0.02141819 -0.7282039 -0.6850258
vn -0.05803388 -0.8002772 -0.5968153
vn -0.05803205 -0.800254 -0.5968465
vn -0.02517771 -0.8775181 -0.4788821
vn -0.02495911 -0.8777276 -0.4785094
vn 0.06753564 -0.9256341 -0.3723444
vn 0.06817417 -0.9257894 -0.3718418
vn 0.1772529 -0.9355909 -0.3053702
vn 0.1777977 -0.9355612 -0.3051447
vn 0.2791428 -0.9191096 -0.2780591
vn 0.277405 -0.9195809 -0.27824
vn 0.3766958 -0.8792799 -0.2914914
vn 0.3766878 -0.8792843 -0.2914884
vn 0.4560294 -0.8194947 -0.3470815
vn 0.456257 -0.819243 -0.3473767
vn 0.4856371 -0.7631575 -0.4263182
vn 0.4856434 -0.7629533 -0.4266764
vn 0.4658405 -0.7275291 -0.5036804
vn 0.4657635 -0.7274857 -0.5038144
vn 0.4112233 -0.7153367 -0.564968
vn 0.4113189 -0.7153385 -0.564896
vn 0.3342664 -0.7232682 -0.6042757
vn 0.334737 -0.7231751 -0.6041265
vn 0.2464177 -0.7485951 -0.6155353
vn 0.2474306 -0.7482187 -0.6155866
vn 0.2015526 -0.764294 -0.6125613
vn 0.2015526 -0.764294 -0.6125613
g fxMesh_Sculptor01Lv2trail1_0
f 3/3/3 2/2/2 1/1/1
f 4/4/4 3/3/3 1/1/1
f 3/3/3 5/5/5 2/2/2
f 5/5/5 6/6/6 2/2/2
f 5/5/5 7/7/7 6/6/6
f 7/7/7 8/8/8 6/6/6
f 7/7/7 9/9/9 8/8/8
f 9/9/9 10/10/10 8/8/8
f 9/9/9 11/11/11 10/10/10
f 11/11/11 12/12/12 10/10/10
f 11/11/11 13/13/13 12/12/12
f 13/13/13 14/14/14 12/12/12
f 13/13/13 15/15/15 14/14/14
f 15/15/15 16/16/16 14/14/14
f 15/15/15 17/17/17 16/16/16
f 17/17/17 18/18/18 16/16/16
f 17/17/17 19/19/19 18/18/18
f 19/19/19 20/20/20 18/18/18
f 19/19/19 21/21/21 20/20/20
f 21/21/21 22/22/22 20/20/20
f 21/21/21 23/23/23 22/22/22
f 23/23/23 24/24/24 22/22/22
f 23/23/23 25/25/25 24/24/24
f 25/25/25 26/26/26 24/24/24
f 25/25/25 27/27/27 26/26/26
f 27/27/27 28/28/28 26/26/26
f 27/27/27 29/29/29 28/28/28
f 29/29/29 30/30/30 28/28/28
f 29/29/29 31/31/31 30/30/30
f 31/31/31 32/32/32 30/30/30
f 31/31/31 33/33/33 32/32/32
f 33/33/33 34/34/34 32/32/32
f 37/37/37 36/36/36 35/35/35
f 38/38/38 37/37/37 35/35/35
f 37/37/37 39/39/39 36/36/36
f 39/39/39 40/40/40 36/36/36
f 39/39/39 41/41/41 40/40/40
f 41/41/41 42/42/42 40/40/40
f 41/41/41 43/43/43 42/42/42
f 43/43/43 44/44/44 42/42/42
f 43/43/43 45/45/45 44/44/44
f 45/45/45 46/46/46 44/44/44
f 45/45/45 47/47/47 46/46/46
f 47/47/47 48/48/48 46/46/46
f 47/47/47 49/49/49 48/48/48
f 49/49/49 50/50/50 48/48/48
f 49/49/49 51/51/51 50/50/50
f 51/51/51 52/52/52 50/50/50
f 51/51/51 53/53/53 52/52/52
f 53/53/53 54/54/54 52/52/52
f 53/53/53 55/55/55 54/54/54
f 55/55/55 56/56/56 54/54/54
f 55/55/55 57/57/57 56/56/56
f 57/57/57 58/58/58 56/56/56
f 57/57/57 59/59/59 58/58/58
f 59/59/59 60/60/60 58/58/58
f 59/59/59 61/61/61 60/60/60
f 61/61/61 62/62/62 60/60/60
f 61/61/61 63/63/63 62/62/62
f 63/63/63 64/64/64 62/62/62
f 63/63/63 65/65/65 64/64/64
f 65/65/65 66/66/66 64/64/64
f 65/65/65 67/67/67 66/66/66
f 67/67/67 68/68/68 66/66/66
