g fxMesh_Sculptor10Trail2
v 0.08523052 -0.03412611 -0.7274086
v -0.09037574 -0.03433632 -0.5938653
v -0.5986748 -1.601477E-07 -1.13063
v -0.3046572 -2.170411E-07 -1.355479
v -0.8285618 -9.647272E-08 -0.8555715
v -0.2074534 -0.03440388 -0.4546863
v -0.978732 1.272419E-07 -0.5386881
v -0.2743194 -0.03443986 -0.3144395
v -1.037459 -3.766466E-08 -0.2042056
v -0.2987691 -0.03442563 -0.1755504
v -1.008614 2.571223E-07 0.1184322
v -0.2864882 -0.03438034 -0.03973915
v -0.908149 3.098626E-07 0.4094962
v -0.2415292 -0.03433524 0.08996125
v -0.7525005 1.974089E-07 0.6613242
v -0.1678776 -0.03430687 0.2088856
v -0.5525442 2.303235E-07 0.8718745
v -0.07027193 -0.03429895 0.3116083
v -0.3137375 2.530997E-07 1.038676
v 0.04581669 -0.03431144 0.3927613
v -0.0387365 1.869657E-07 1.155321
v 0.1745379 -0.03434355 0.4475089
v 0.2683391 2.626016E-07 1.209828
v 0.3102402 -0.03438902 0.4717705
v 0.5956094 8.922737E-08 1.186404
v 0.448321 -0.03442724 0.4619797
v 0.9193125 2.089006E-07 1.0737
v 0.5857858 -0.03442817 0.4139696
v 1.210718 1.576453E-07 0.8747821
v 0.72031 -0.03438248 0.3216233
v 1.451122 1.692956E-08 0.6049411
v 0.8482146 -0.03431477 0.1771705
v 1.636998 2.262988E-08 0.2783512
v 0.9637671 -0.0342534 -0.0270079
v 1.773346 9.762368E-08 -0.1026646
v 1.060081 -0.03429234 -0.2969244
v 1.836003 -1.452478E-07 -0.538601
v 1.09679 -0.03445191 -0.5456062
v 1.780214 -2.261081E-07 -0.9633078
v 1.068507 -0.03447342 -0.7634118
v 1.615162 -3.707821E-07 -1.339874
v 0.9853832 -0.03442952 -0.9527522
v 1.369385 -1.876726E-07 -1.645077
v 0.8549541 -0.03436102 -1.114185
v 1.072205 -3.757859E-07 -1.875149
v 0.6846453 -0.03430486 -1.245639
v 0.7432181 -3.936504E-07 -2.03577
v 0.4832002 -0.03427127 -1.343762
v 0.3938317 -3.980589E-07 -2.132356
v 0.2604688 -0.03425785 -1.405239
v 0.03157991 -3.896469E-07 -2.166502
v 0.02682585 -0.03426144 -1.427271
v -0.3367389 -3.681627E-07 -2.135464
v -0.2072547 -0.0342809 -1.407646
v -0.7023943 -3.326587E-07 -2.032536
v -0.4315597 -0.03431514 -1.344689
v -1.051581 -2.819774E-07 -1.848781
v -0.6365643 -0.03435725 -1.237025
v -1.362788 -2.158453E-07 -1.577969
v -0.8137841 -0.03438835 -1.082915
v -1.609411 -1.361806E-07 -1.223912
v -0.9554244 -0.03438535 -0.8792581
v -1.769808 -4.694799E-08 -0.8021882
v -1.053018 -0.03434492 -0.6213654
v -1.83514 4.802834E-08 -0.3307239
v -1.096369 -0.03428821 -0.3042299
v -1.805824 1.469116E-07 0.1807195
v -1.074025 -0.03423697 0.07605267
v -1.683232 2.495491E-07 0.7319773
v -0.9744086 -0.03412582 0.5220867
v -0.3046572 -2.170411E-07 -1.355479
v -0.5986748 -1.601477E-07 -1.13063
v -0.09037673 0.03433617 -0.5938644
v 0.08523052 0.0341259 -0.7274086
v -0.2074539 0.0344038 -0.4546856
v -0.8285618 -9.647272E-08 -0.8555715
v -0.2743192 0.0344398 -0.3144402
v -0.978732 1.272419E-07 -0.5386881
v -0.298769 0.03442569 -0.1755524
v -1.037459 -3.766466E-08 -0.2042056
v -0.2864887 0.03438039 -0.03974114
v -1.008614 2.571223E-07 0.1184322
v -0.2415297 0.03433533 0.08996001
v -0.908149 3.098626E-07 0.4094962
v -0.167878 0.03430704 0.2088851
v -0.7525005 1.974089E-07 0.6613242
v -0.07027187 0.03429915 0.3116084
v -0.5525442 2.303235E-07 0.8718745
v 0.04581732 0.03431167 0.3927616
v -0.3137375 2.530997E-07 1.038676
v 0.1745393 0.03434381 0.4475094
v -0.0387365 1.869657E-07 1.155321
v 0.3102422 0.03438926 0.4717706
v 0.2683391 2.626016E-07 1.209828
v 0.4483226 0.03442751 0.4619794
v 0.5956094 8.922737E-08 1.186404
v 0.5857859 0.03442836 0.4139695
v 0.9193125 2.089006E-07 1.0737
v 0.7203091 0.03438262 0.3216241
v 1.210718 1.576453E-07 0.8747821
v 0.8482138 0.03431487 0.1771715
v 1.451122 1.692956E-08 0.6049411
v 0.9637667 0.03425338 -0.02700715
v 1.636998 2.262988E-08 0.2783512
v 1.060083 0.03429218 -0.2969313
v 1.773346 9.762368E-08 -0.1026646
v 1.09679 0.03445169 -0.545607
v 1.836003 -1.452478E-07 -0.538601
v 1.068507 0.0344731 -0.7634103
v 1.780214 -2.261081E-07 -0.9633078
v 0.9853846 0.03442916 -0.9527498
v 1.615162 -3.707821E-07 -1.339874
v 0.8549557 0.03436055 -1.114184
v 1.369385 -1.876726E-07 -1.645077
v 0.6846464 0.03430439 -1.245638
v 1.072205 -3.757859E-07 -1.875149
v 0.4832008 0.03427079 -1.343762
v 0.7432181 -3.936504E-07 -2.03577
v 0.2604689 0.03425736 -1.405239
v 0.3938317 -3.980589E-07 -2.132356
v 0.02682552 0.03426096 -1.427271
v 0.03157991 -3.896469E-07 -2.166502
v -0.2072555 0.03428044 -1.407646
v -0.3367389 -3.681627E-07 -2.135464
v -0.431561 0.03431473 -1.344689
v -0.7023943 -3.326587E-07 -2.032536
v -0.6365657 0.0343569 -1.237024
v -1.051581 -2.819774E-07 -1.848781
v -0.8137849 0.03438807 -1.082914
v -1.362788 -2.158453E-07 -1.577969
v -0.9554244 0.03438517 -0.8792581
v -1.609411 -1.361806E-07 -1.223912
v -1.053018 0.03434485 -0.6213663
v -1.769808 -4.694799E-08 -0.8021882
v -1.096369 0.03428826 -0.3042309
v -1.83514 4.802834E-08 -0.3307239
v -1.074025 0.03423717 0.07605197
v -1.805824 1.469116E-07 0.1807195
v -0.9744086 0.03412619 0.5220867
v -1.683232 2.495491E-07 0.7319773
vt 1 1
vt 1 0.9698491
vt 0 0.9698491
vt 0 1
vt 0 0.9441895
vt 1 0.9441895
vt 0 0.9215997
vt 1 0.9215997
vt 0 0.9007746
vt 1 0.9007746
vt 0 0.8807045
vt 1 0.8807045
vt 0 0.8607748
vt 1 0.8607748
vt 0 0.8407328
vt 1 0.8407328
vt 0 0.8205742
vt 1 0.8205742
vt 0 0.800408
vt 1 0.800408
vt 0 0.7803262
vt 1 0.7803262
vt 0 0.760272
vt 1 0.760272
vt 0 0.7399092
vt 1 0.7399092
vt 0 0.718526
vt 1 0.718526
vt 0 0.6950349
vt 1 0.6950349
vt 0 0.6680984
vt 1 0.6680984
vt 0 0.636304
vt 1 0.636304
vt 0 0.5982842
vt 1 0.5982842
vt 0 0.5636486
vt 1 0.5636486
vt 0 0.5327301
vt 1 0.5327301
vt 0 0.5035022
vt 1 0.5035022
vt 0 0.4744807
vt 1 0.4744807
vt 0 0.4448541
vt 1 0.4448541
vt 0 0.4143791
vt 1 0.4143791
vt 0 0.3831801
vt 1 0.3831801
vt 0 0.3515575
vt 1 0.3515575
vt 0 0.3198232
vt 1 0.3198232
vt 0 0.2881495
vt 1 0.2881495
vt 0 0.2564117
vt 1 0.2564117
vt 0 0.224036
vt 1 0.224036
vt 0 0.1899031
vt 1 0.1899031
vt 0 0.1523908
vt 1 0.1523908
vt 0 0.1095659
vt 1 0.1095659
vt 0 0.05941546
vt 1 0.05941546
vt 0 0
vt 1 0
vt 0 1
vt 0 0.9698491
vt 1 0.9698491
vt 1 1
vt 1 0.9441895
vt 0 0.9441895
vt 1 0.9215997
vt 0 0.9215997
vt 1 0.9007746
vt 0 0.9007746
vt 1 0.8807045
vt 0 0.8807045
vt 1 0.8607748
vt 0 0.8607748
vt 1 0.8407328
vt 0 0.8407328
vt 1 0.8205742
vt 0 0.8205742
vt 1 0.800408
vt 0 0.800408
vt 1 0.7803262
vt 0 0.7803262
vt 1 0.760272
vt 0 0.760272
vt 1 0.7399092
vt 0 0.7399092
vt 1 0.718526
vt 0 0.718526
vt 1 0.6950349
vt 0 0.6950349
vt 1 0.6680984
vt 0 0.6680984
vt 1 0.636304
vt 0 0.636304
vt 1 0.5982842
vt 0 0.5982842
vt 1 0.5636486
vt 0 0.5636486
vt 1 0.5327301
vt 0 0.5327301
vt 1 0.5035022
vt 0 0.5035022
vt 1 0.4744807
vt 0 0.4744807
vt 1 0.4448541
vt 0 0.4448541
vt 1 0.4143791
vt 0 0.4143791
vt 1 0.3831801
vt 0 0.3831801
vt 1 0.3515575
vt 0 0.3515575
vt 1 0.3198232
vt 0 0.3198232
vt 1 0.2881495
vt 0 0.2881495
vt 1 0.2564117
vt 0 0.2564117
vt 1 0.224036
vt 0 0.224036
vt 1 0.1899031
vt 0 0.1899031
vt 1 0.1523908
vt 0 0.1523908
vt 1 0.1095659
vt 0 0.1095659
vt 1 0.05941546
vt 0 0.05941546
vt 1 0
vt 0 0
vn 0.02792512 0.9989184 0.03717782
vn 0.03185954 0.9989257 0.03365007
vn 0.03183833 0.9989257 0.0336691
vn 0.02792512 0.9989184 0.03717782
vn 0.03906161 0.9989196 0.02517432
vn 0.03907227 0.9989196 0.02515821
vn 0.04430455 0.998918 0.01414335
vn 0.04430303 0.998918 0.01414807
vn 0.04646058 0.9989183 0.00189026
vn 0.04645966 0.9989183 0.001917388
vn 0.04540213 0.9989203 -0.009843423
vn 0.04540915 0.9989203 -0.009812696
vn 0.04188067 0.9989226 -0.01998795
vn 0.04189073 0.9989226 -0.01996738
vn 0.03669505 0.9989243 -0.02834807
vn 0.03670161 0.9989243 -0.02833966
vn 0.03023921 0.9989249 -0.03513879
vn 0.03023811 0.9989249 -0.03513974
vn 0.02251208 0.9989241 -0.04054477
vn 0.0225003 0.9989241 -0.04055141
vn 0.01330924 0.9989222 -0.04446596
vn 0.01328534 0.9989222 -0.04447338
vn 0.00253533 0.9989199 -0.046395
vn 0.002504541 0.9989199 -0.04639698
vn -0.009339463 0.9989184 -0.04555007
vn -0.009360818 0.9989184 -0.04554579
vn -0.02099434 0.9989185 -0.04148429
vn -0.02099252 0.9989185 -0.04148522
vn -0.03077886 0.9989207 -0.03478672
vn -0.03076239 0.9989207 -0.0348017
vn -0.03776909 0.9989241 -0.02690795
vn -0.03775413 0.9989241 -0.02692978
vn -0.04213051 0.998926 -0.01928178
vn -0.04212246 0.998926 -0.01929986
vn -0.0450026 0.9989219 -0.01139017
vn -0.04503895 0.9989217 -0.01126721
vn -0.04647961 0.9989191 -0.0004580711
vn -0.04648008 0.9989191 -0.0004396458
vn -0.04482946 0.9989163 0.01251513
vn -0.04483449 0.9989163 0.01249726
vn -0.03969378 0.9989179 0.02423661
vn -0.03971554 0.9989179 0.02420195
vn -0.03241856 0.9989212 0.03324854
vn -0.03244623 0.9989212 0.03322238
vn -0.02440297 0.9989244 0.03942595
vn -0.0244242 0.9989244 0.03941318
vn -0.01634987 0.9989266 0.04333876
vn -0.01636119 0.9989266 0.04333458
vn -0.008361186 0.9989276 0.04553913
vn -0.008363036 0.9989276 0.04553879
vn -0.0002553548 0.9989274 0.04630386
vn -0.0002481789 0.9989274 0.04630393
vn 0.008200143 0.9989262 0.04559885
vn 0.008216167 0.9989262 0.0455961
vn 0.01709715 0.9989242 0.04310589
vn 0.01712007 0.9989242 0.04309708
vn 0.02615679 0.998922 0.03834757
vn 0.0261793 0.998922 0.03833253
vn 0.03454719 0.9989207 0.0310466
vn 0.03455865 0.9989207 0.03103392
vn 0.04109013 0.9989209 0.02164525
vn 0.04108891 0.9989209 0.02164761
vn 0.04497676 0.9989229 0.01140865
vn 0.0449726 0.9989229 0.01142598
vn 0.0463037 0.9989259 0.001761676
vn 0.04630324 0.9989258 0.0017825
vn 0.04578974 0.9989302 -0.00647199
vn 0.04579244 0.9989301 -0.006455533
vn 0.04518062 0.998927 -0.01017821
vn 0.04518061 0.998927 -0.01017821
vn 0.02792505 -0.9989184 0.0371782
vn 0.03183826 -0.9989257 0.03366948
vn 0.03185948 -0.9989257 0.03365045
vn 0.02792505 -0.9989184 0.0371782
vn 0.03907198 -0.9989196 0.02515878
vn 0.03906132 -0.9989196 0.0251749
vn 0.04430275 -0.998918 0.01414826
vn 0.04430426 -0.998918 0.01414352
vn 0.04645957 -0.9989183 0.001917864
vn 0.0464605 -0.9989183 0.001890707
vn 0.04540883 -0.9989203 -0.009811722
vn 0.04540182 -0.9989203 -0.009842483
vn 0.04189018 -0.9989226 -0.01996708
vn 0.04188011 -0.9989227 -0.01998767
vn 0.03670128 -0.9989244 -0.02833946
vn 0.03669472 -0.9989244 -0.02834787
vn 0.03023803 -0.9989249 -0.03513935
vn 0.03023913 -0.9989249 -0.0351384
vn 0.02250009 -0.9989241 -0.04055114
vn 0.02251187 -0.9989241 -0.0405445
vn 0.01328525 -0.9989222 -0.04447316
vn 0.01330917 -0.9989222 -0.04446574
vn 0.002504253 -0.9989199 -0.04639674
vn 0.002535076 -0.99892 -0.04639475
vn -0.00936103 -0.9989184 -0.0455457
vn -0.00933965 -0.9989184 -0.04554999
vn -0.02099241 -0.9989185 -0.04148503
vn -0.02099422 -0.9989185 -0.04148411
vn -0.03076259 -0.9989207 -0.03480127
vn -0.03077907 -0.9989207 -0.03478629
vn -0.03775432 -0.9989241 -0.02692948
vn -0.03776929 -0.9989241 -0.02690765
vn -0.04212236 -0.998926 -0.01929973
vn -0.04213041 -0.998926 -0.01928166
vn -0.04503879 -0.9989217 -0.01126667
vn -0.04500242 -0.9989219 -0.0113897
vn -0.0464801 -0.9989191 -0.0004390013
vn -0.04647964 -0.9989191 -0.0004574413
vn -0.04483462 -0.9989163 0.01249773
vn -0.04482958 -0.9989163 0.01251563
vn -0.03971585 -0.9989179 0.0242021
vn -0.03969406 -0.9989179 0.0242368
vn -0.03244627 -0.9989212 0.03322249
vn -0.03241858 -0.9989212 0.03324866
vn -0.02442406 -0.9989244 0.0394136
vn -0.02440282 -0.9989244 0.03942638
vn -0.01636129 -0.9989266 0.04333497
vn -0.01634997 -0.9989266 0.04333915
vn -0.008363118 -0.9989275 0.04553919
vn -0.008361268 -0.9989275 0.04553952
vn -0.0002482522 -0.9989274 0.04630433
vn -0.0002554309 -0.9989274 0.04630426
vn 0.008216092 -0.9989262 0.0455965
vn 0.008200062 -0.9989262 0.04559926
vn 0.01712001 -0.9989242 0.04309747
vn 0.01709709 -0.9989242 0.04310628
vn 0.02617926 -0.998922 0.0383329
vn 0.02615673 -0.998922 0.03834796
vn 0.03455858 -0.9989207 0.03103431
vn 0.03454711 -0.9989207 0.03104699
vn 0.04108884 -0.9989209 0.02164801
vn 0.04109007 -0.9989209 0.02164565
vn 0.04497251 -0.9989229 0.01142639
vn 0.04497668 -0.9989229 0.01140905
vn 0.04630316 -0.9989259 0.001782901
vn 0.04630362 -0.9989259 0.00176207
vn 0.04579237 -0.9989302 -0.006455133
vn 0.04578967 -0.9989302 -0.006471592
vn 0.04518055 -0.998927 -0.01017781
vn 0.04518055 -0.998927 -0.01017781
g fxMesh_Sculptor10Trail2_0
f 3/3/3 2/2/2 1/1/1
f 4/4/4 3/3/3 1/1/1
f 3/3/3 5/5/5 2/2/2
f 5/5/5 6/6/6 2/2/2
f 5/5/5 7/7/7 6/6/6
f 7/7/7 8/8/8 6/6/6
f 7/7/7 9/9/9 8/8/8
f 9/9/9 10/10/10 8/8/8
f 9/9/9 11/11/11 10/10/10
f 11/11/11 12/12/12 10/10/10
f 11/11/11 13/13/13 12/12/12
f 13/13/13 14/14/14 12/12/12
f 13/13/13 15/15/15 14/14/14
f 15/15/15 16/16/16 14/14/14
f 15/15/15 17/17/17 16/16/16
f 17/17/17 18/18/18 16/16/16
f 17/17/17 19/19/19 18/18/18
f 19/19/19 20/20/20 18/18/18
f 19/19/19 21/21/21 20/20/20
f 21/21/21 22/22/22 20/20/20
f 21/21/21 23/23/23 22/22/22
f 23/23/23 24/24/24 22/22/22
f 23/23/23 25/25/25 24/24/24
f 25/25/25 26/26/26 24/24/24
f 25/25/25 27/27/27 26/26/26
f 27/27/27 28/28/28 26/26/26
f 27/27/27 29/29/29 28/28/28
f 29/29/29 30/30/30 28/28/28
f 29/29/29 31/31/31 30/30/30
f 31/31/31 32/32/32 30/30/30
f 31/31/31 33/33/33 32/32/32
f 33/33/33 34/34/34 32/32/32
f 33/33/33 35/35/35 34/34/34
f 35/35/35 36/36/36 34/34/34
f 35/35/35 37/37/37 36/36/36
f 37/37/37 38/38/38 36/36/36
f 37/37/37 39/39/39 38/38/38
f 39/39/39 40/40/40 38/38/38
f 39/39/39 41/41/41 40/40/40
f 41/41/41 42/42/42 40/40/40
f 41/41/41 43/43/43 42/42/42
f 43/43/43 44/44/44 42/42/42
f 43/43/43 45/45/45 44/44/44
f 45/45/45 46/46/46 44/44/44
f 45/45/45 47/47/47 46/46/46
f 47/47/47 48/48/48 46/46/46
f 47/47/47 49/49/49 48/48/48
f 49/49/49 50/50/50 48/48/48
f 49/49/49 51/51/51 50/50/50
f 51/51/51 52/52/52 50/50/50
f 51/51/51 53/53/53 52/52/52
f 53/53/53 54/54/54 52/52/52
f 53/53/53 55/55/55 54/54/54
f 55/55/55 56/56/56 54/54/54
f 55/55/55 57/57/57 56/56/56
f 57/57/57 58/58/58 56/56/56
f 57/57/57 59/59/59 58/58/58
f 59/59/59 60/60/60 58/58/58
f 59/59/59 61/61/61 60/60/60
f 61/61/61 62/62/62 60/60/60
f 61/61/61 63/63/63 62/62/62
f 63/63/63 64/64/64 62/62/62
f 63/63/63 65/65/65 64/64/64
f 65/65/65 66/66/66 64/64/64
f 65/65/65 67/67/67 66/66/66
f 67/67/67 68/68/68 66/66/66
f 67/67/67 69/69/69 68/68/68
f 69/69/69 70/70/70 68/68/68
f 73/73/73 72/72/72 71/71/71
f 74/74/74 73/73/73 71/71/71
f 73/73/73 75/75/75 72/72/72
f 75/75/75 76/76/76 72/72/72
f 75/75/75 77/77/77 76/76/76
f 77/77/77 78/78/78 76/76/76
f 77/77/77 79/79/79 78/78/78
f 79/79/79 80/80/80 78/78/78
f 79/79/79 81/81/81 80/80/80
f 81/81/81 82/82/82 80/80/80
f 81/81/81 83/83/83 82/82/82
f 83/83/83 84/84/84 82/82/82
f 83/83/83 85/85/85 84/84/84
f 85/85/85 86/86/86 84/84/84
f 85/85/85 87/87/87 86/86/86
f 87/87/87 88/88/88 86/86/86
f 87/87/87 89/89/89 88/88/88
f 89/89/89 90/90/90 88/88/88
f 89/89/89 91/91/91 90/90/90
f 91/91/91 92/92/92 90/90/90
f 91/91/91 93/93/93 92/92/92
f 93/93/93 94/94/94 92/92/92
f 93/93/93 95/95/95 94/94/94
f 95/95/95 96/96/96 94/94/94
f 95/95/95 97/97/97 96/96/96
f 97/97/97 98/98/98 96/96/96
f 97/97/97 99/99/99 98/98/98
f 99/99/99 100/100/100 98/98/98
f 99/99/99 101/101/101 100/100/100
f 101/101/101 102/102/102 100/100/100
f 101/101/101 103/103/103 102/102/102
f 103/103/103 104/104/104 102/102/102
f 103/103/103 105/105/105 104/104/104
f 105/105/105 106/106/106 104/104/104
f 105/105/105 107/107/107 106/106/106
f 107/107/107 108/108/108 106/106/106
f 107/107/107 109/109/109 108/108/108
f 109/109/109 110/110/110 108/108/108
f 109/109/109 111/111/111 110/110/110
f 111/111/111 112/112/112 110/110/110
f 111/111/111 113/113/113 112/112/112
f 113/113/113 114/114/114 112/112/112
f 113/113/113 115/115/115 114/114/114
f 115/115/115 116/116/116 114/114/114
f 115/115/115 117/117/117 116/116/116
f 117/117/117 118/118/118 116/116/116
f 117/117/117 119/119/119 118/118/118
f 119/119/119 120/120/120 118/118/118
f 119/119/119 121/121/121 120/120/120
f 121/121/121 122/122/122 120/120/120
f 121/121/121 123/123/123 122/122/122
f 123/123/123 124/124/124 122/122/122
f 123/123/123 125/125/125 124/124/124
f 125/125/125 126/126/126 124/124/124
f 125/125/125 127/127/127 126/126/126
f 127/127/127 128/128/128 126/126/126
f 127/127/127 129/129/129 128/128/128
f 129/129/129 130/130/130 128/128/128
f 129/129/129 131/131/131 130/130/130
f 131/131/131 132/132/132 130/130/130
f 131/131/131 133/133/133 132/132/132
f 133/133/133 134/134/134 132/132/132
f 133/133/133 135/135/135 134/134/134
f 135/135/135 136/136/136 134/134/134
f 135/135/135 137/137/137 136/136/136
f 137/137/137 138/138/138 136/136/136
f 137/137/137 139/139/139 138/138/138
f 139/139/139 140/140/140 138/138/138
