g fxMesh_Sculptor10Trail
v -0.5554834 0.7935746 -0.01516706
v -0.6027582 0.6409125 -0.01871801
v -0.7357004 0.7729612 -0.009359005
v -0.6159152 0.9085259 -0.007583506
v -0.8307452 0.6066691 -0.01161164
v -0.6442122 0.4456953 -0.02322324
v -0.9125735 0.3845312 -0.01399623
v -0.6613402 0.1994779 -0.02799241
v -0.9738029 0.1923238 -0.01637692
v -0.6607378 0.04870979 -0.03275377
v -1.006015 -0.01974449 -0.01687435
v -0.6449529 -0.1430663 -0.03374861
v -1.011172 -0.2681237 -0.0173222
v -0.6011178 -0.339356 -0.03464431
v -0.9978263 -0.5595971 -0.01771799
v -0.544907 -0.5465301 -0.03543589
v -0.9504812 -0.8759781 -0.01805816
v -0.4799805 -0.7128831 -0.0361164
v -0.3822525 -0.8639286 -0.03667563
v -0.8431722 -1.237166 -0.01833789
v -0.2821956 -0.9788982 -0.03710109
v -0.6478157 -1.600764 -0.01855058
v -0.1568066 -1.092489 -0.03737855
v -0.4271067 -1.838332 -0.0186893
v -0.04765044 -1.173708 -0.03749244
v -0.1773431 -1.997175 -0.01874624
v 0.08706117 -1.254619 -0.0374254
v 0.1110301 -2.094625 -0.01871271
v 0.3000377 -1.36245 -0.03715702
v 0.4654163 -2.141309 -0.01857852
v 0.4760777 -1.418567 -0.03666259
v 0.755513 -2.104036 -0.01833121
v 0.6429332 -1.44353 -0.0359125
v 0.9627784 -1.991574 -0.01795623
v 0.8199763 -1.4488 -0.03487412
v 1.09241 -1.823975 -0.01743704
v 1.146441 -1.641744 -0.01675798
v 0.921976 -1.398424 -0.03351602
v 1.172204 -1.476308 -0.01590397
v 0.996547 -1.319095 -0.03180799
v 1.175243 -1.318054 -0.01485829
v 1.046986 -1.223269 -0.02971665
v 1.163955 -1.181289 -0.01359956
v 1.05764 -1.111924 -0.02719919
v 1.148626 -1.060062 -0.01209953
v 1.056087 -0.997492 -0.02419912
v 1.116552 -0.9263241 -0.01032237
v 1.041916 -0.9001648 -0.02064481
v 1.082918 -0.7827604 -0.008215458
v 1.021814 -0.7601671 -0.01643099
v 1.370906 -1.885064 5.00679E-08
v 1.364844 -2.199149 3.576278E-08
v 1.34786 -1.63352 5.960464E-08
v 1.303499 -1.412838 6.67572E-08
v 1.270271 -1.250655 7.152557E-08
v 1.241166 -1.122631 7.152557E-08
v 1.191188 -0.9524831 7.629394E-08
v 1.144022 -0.8053538 7.152557E-08
v 1.282624 -2.539618 2.384186E-08
v 1.034948 -2.789505 1.573563E-07
v 0.6307949 -2.920169 -9.536743E-09
v 0.1349991 -2.93463 -2.622604E-08
v -0.3070357 -2.820642 -3.814697E-08
v -0.6974068 -2.584175 -5.483627E-08
v -1.013436 -2.222629 -6.198883E-08
v -1.304092 -1.610404 -1.454353E-07
v -1.420982 -1.039073 7.152557E-08
v -1.450746 -0.5726643 -7.867813E-08
v -1.421226 -0.1968914 -8.106232E-08
v -1.367076 0.1035773 -8.106232E-08
v -1.286868 0.3359379 -7.867813E-08
v -1.163807 0.5695844 -5.245209E-08
v -1.017278 0.7676429 -2.861023E-08
v -0.8686427 0.9050098 0
v -0.676347 1.023477 5.00679E-08
v -0.6159152 0.9085261 0.007583614
v -0.676347 1.023477 5.00679E-08
v -0.8686427 0.9050098 0
v -0.7357004 0.772961 0.009359012
v -1.017278 0.7676429 -2.861023E-08
v -0.8307452 0.6066691 0.01161159
v -1.163807 0.5695844 -5.245209E-08
v -0.9125736 0.3845309 0.01399615
v -1.286868 0.3359379 -7.867813E-08
v -0.973803 0.1923241 0.01637678
v -1.367076 0.1035773 -8.106232E-08
v -1.006015 -0.01974403 0.01687421
v -1.421226 -0.1968914 -8.106232E-08
v -1.011172 -0.2681234 0.01732206
v -1.450746 -0.5726643 -7.867813E-08
v -0.9978265 -0.5595973 0.01771785
v -0.9504812 -0.875978 0.01805818
v -1.420982 -1.039073 7.152557E-08
v -0.8431723 -1.237166 0.0183377
v -1.304092 -1.610404 -1.454353E-07
v -0.6478158 -1.600764 0.01855048
v -1.013436 -2.222629 -6.198883E-08
v -0.4271069 -1.838332 0.01868921
v -0.6974068 -2.584175 -5.483627E-08
v -0.177343 -1.997175 0.01874618
v -0.3070357 -2.820642 -3.814697E-08
v 0.1110302 -2.094625 0.01871267
v 0.1349991 -2.93463 -2.622604E-08
v 0.4654163 -2.141309 0.01857849
v 0.6307949 -2.920169 -9.536743E-09
v 0.7555131 -2.104036 0.01833137
v 1.034948 -2.789505 1.573563E-07
v 1.282624 -2.539618 2.384186E-08
v 0.9627789 -1.991574 0.01795626
v 1.364844 -2.199149 3.576278E-08
v 1.09241 -1.823975 0.01743708
v 1.370906 -1.885064 5.00679E-08
v 1.146441 -1.641744 0.01675805
v 1.34786 -1.63352 5.960464E-08
v 1.172204 -1.476308 0.01590405
v 1.303499 -1.412838 6.67572E-08
v 1.175243 -1.318054 0.01485839
v 1.270271 -1.250655 7.152557E-08
v 1.163955 -1.18129 0.01359967
v 1.241166 -1.122631 7.152557E-08
v 1.148626 -1.060062 0.01209964
v 1.191188 -0.9524831 7.629394E-08
v 1.116552 -0.9263239 0.01032249
v 1.144022 -0.8053538 7.152557E-08
v 1.082918 -0.7827604 0.008215583
v 0.8199765 -1.4488 0.03487414
v 0.642934 -1.44353 0.0359125
v 0.4760779 -1.418567 0.03666259
v 0.3000377 -1.36245 0.037157
v 0.08706132 -1.254619 0.03742536
v -0.04765029 -1.173708 0.03749239
v -0.1568068 -1.09249 0.03737848
v -0.2821957 -0.9788983 0.03710101
v -0.3822526 -0.8639286 0.03667555
v -0.4799807 -0.7128829 0.0361163
v -0.5449072 -0.5465302 0.03543578
v -0.6011179 -0.3393554 0.0346442
v -0.6449531 -0.1430654 0.0337485
v -0.6607378 0.0487104 0.03275365
v -0.6613404 0.1994773 0.02799234
v -0.6442122 0.4456953 0.0232232
v -0.6027581 0.6409122 0.01871802
v -0.5554833 0.7935749 0.01516718
v 0.921976 -1.398424 0.03351605
v 0.996547 -1.319095 0.03180805
v 1.046986 -1.223269 0.02971672
v 1.05764 -1.111924 0.02719926
v 1.056087 -0.997492 0.02419922
v 1.041916 -0.9001648 0.02064491
v 1.021814 -0.760167 0.0164311
vt 1 1
vt 1 0.8630473
vt 0.5 0.8630473
vt 0.5 1
vt 0.5 0.6798478
vt 1 0.6798478
vt 0.5 0.5903816
vt 1 0.5903816
vt 0.5 0.5567505
vt 1 0.5567505
vt 0.5 0.5197347
vt 1 0.5197347
vt 0.5 0.4980558
vt 1 0.4980558
vt 0.5 0.4765667
vt 1 0.4765667
vt 0.5 0.4550511
vt 1 0.4550511
vt 1 0.4334227
vt 0.5 0.4334227
vt 1 0.4116853
vt 0.5 0.4116853
vt 1 0.3898918
vt 0.5 0.3898918
vt 1 0.3743072
vt 0.5 0.3743072
vt 1 0.3510667
vt 0.5 0.3510667
vt 1 0.3278253
vt 0.5 0.3278253
vt 1 0.3044248
vt 0.5 0.3044248
vt 1 0.2805537
vt 0.5 0.2805537
vt 1 0.2557282
vt 0.5 0.2557282
vt 0.5 0.2293
vt 1 0.2293
vt 0.5 0.2004974
vt 1 0.2004974
vt 0.5 0.1684798
vt 1 0.1684798
vt 0.5 0.1323914
vt 1 0.1323914
vt 0.5 0.0913958
vt 1 0.0913958
vt 0.5 0.04469232
vt 1 0.04469232
vt 0.5 0
vt 1 0
vt 0 0.2293
vt 0 0.2557282
vt 0 0.2004974
vt 0 0.1684798
vt 0 0.1323914
vt 0 0.0913958
vt 0 0.04469232
vt 0 0
vt 0 0.2805537
vt 0 0.3044248
vt 0 0.3278253
vt 0 0.3510667
vt 0 0.3743072
vt 0 0.3898918
vt 0 0.4116853
vt 0 0.4334227
vt 0 0.4550511
vt 0 0.4765667
vt 0 0.4980558
vt 0 0.5197347
vt 0 0.5567505
vt 0 0.5903816
vt 0 0.6798478
vt 0 0.8630473
vt 0 1
vt 0.5 1
vt 0 1
vt 0 0.8630473
vt 0.5 0.8630473
vt 0 0.6798478
vt 0.5 0.6798478
vt 0 0.5903816
vt 0.5 0.5903816
vt 0 0.5567505
vt 0.5 0.5567505
vt 0 0.5197347
vt 0.5 0.5197347
vt 0 0.4980558
vt 0.5 0.4980558
vt 0 0.4765667
vt 0.5 0.4765667
vt 0.5 0.4550511
vt 0 0.4550511
vt 0.5 0.4334227
vt 0 0.4334227
vt 0.5 0.4116853
vt 0 0.4116853
vt 0.5 0.3898918
vt 0 0.3898918
vt 0.5 0.3743072
vt 0 0.3743072
vt 0.5 0.3510667
vt 0 0.3510667
vt 0.5 0.3278253
vt 0 0.3278253
vt 0.5 0.3044248
vt 0 0.3044248
vt 0 0.2805537
vt 0.5 0.2805537
vt 0 0.2557282
vt 0.5 0.2557282
vt 0 0.2293
vt 0.5 0.2293
vt 0 0.2004974
vt 0.5 0.2004974
vt 0 0.1684798
vt 0.5 0.1684798
vt 0 0.1323914
vt 0.5 0.1323914
vt 0 0.0913958
vt 0.5 0.0913958
vt 0 0.04469232
vt 0.5 0.04469232
vt 0 0
vt 0.5 0
vt 1 0.2557282
vt 1 0.2805537
vt 1 0.3044248
vt 1 0.3278253
vt 1 0.3510667
vt 1 0.3743072
vt 1 0.3898918
vt 1 0.4116853
vt 1 0.4334227
vt 1 0.4550511
vt 1 0.4765667
vt 1 0.4980558
vt 1 0.5197347
vt 1 0.5567505
vt 1 0.5903816
vt 1 0.6798478
vt 1 0.8630473
vt 1 1
vt 1 0.2293
vt 1 0.2004974
vt 1 0.1684798
vt 1 0.1323914
vt 1 0.0913958
vt 1 0.04469232
vt 1 0
vn 0.03672641 -0.03974009 0.9985349
vn 0.03623063 -0.03477686 0.9987382
vn 0.03425371 -0.03783305 0.9986969
vn 0.03294475 -0.04270138 0.9985445
vn 0.03677887 -0.02923965 0.9988956
vn 0.03851452 -0.02645311 0.9989078
vn 0.03912035 -0.02474459 0.9989281
vn 0.03837985 -0.0262814 0.9989176
vn 0.04221842 -0.01750384 0.9989551
vn 0.04377521 -0.01332419 0.9989526
vn 0.04471845 -0.005755662 0.998983
vn 0.04541379 -0.001430529 0.9989672
vn 0.04220324 -0.0007330964 0.9991088
vn 0.04217152 0.002401728 0.9991075
vn 0.0392119 0.002864008 0.9992268
vn 0.03882724 0.005247854 0.9992322
vn 0.03562871 0.007245867 0.9993388
vn 0.03477333 0.009185406 0.9993531
vn 0.029572 0.01316358 0.999476
vn 0.03045576 0.01186253 0.9994657
vn 0.0236068 0.0163239 0.999588
vn 0.02368507 0.01608627 0.99959
vn 0.01738995 0.01896583 0.9996689
vn 0.01673416 0.01917067 0.9996762
vn 0.01219515 0.02088154 0.9997076
vn 0.01054137 0.02124195 0.9997188
vn 0.007920253 0.02252784 0.9997149
vn 0.005435023 0.02274002 0.9997267
vn 0.003728042 0.02412219 0.999702
vn -0.0002332191 0.02379201 0.9997169
vn -0.003180701 0.02504541 0.9996813
vn -0.008611452 0.02346048 0.9996877
vn -0.01199919 0.0254305 0.9996046
vn -0.02176788 0.02092911 0.999544
vn -0.02837658 0.0239308 0.9993108
vn -0.04119443 0.01580313 0.9990262
vn -0.06352425 0.009621959 0.9979339
vn -0.05360863 0.01844177 0.9983917
vn -0.08939176 0.0008900351 0.9959962
vn -0.08076252 0.01165392 0.9966652
vn -0.1179199 -0.01071661 0.9929653
vn -0.1163387 -0.006150914 0.9931906
vn -0.1408348 -0.02490171 0.9897199
vn -0.1418337 -0.02471539 0.9895819
vn -0.1533298 -0.04014657 0.9873592
vn -0.1572052 -0.04743742 0.9864259
vn -0.1565252 -0.05147612 0.9863316
vn -0.1559952 -0.05241894 0.986366
vn -0.1529434 -0.05055545 0.986941
vn -0.1531006 -0.05101125 0.9868931
vn -0.06585966 0.004410057 0.9978191
vn -0.04247988 0.01260272 0.9990178
vn -0.08928326 -0.004387041 0.9959966
vn -0.1187728 -0.01731514 0.9927704
vn -0.1403369 -0.02659743 0.9897465
vn -0.1512901 -0.03615991 0.9878278
vn -0.1563773 -0.04876639 0.9864928
vn -0.1526036 -0.04957049 0.9870436
vn -0.02328012 0.01901612 0.9995481
vn -0.01103936 0.02229543 0.9996905
vn -0.002736155 0.02324672 0.999726
vn 0.003260108 0.02266026 0.9997379
vn 0.009029541 0.02147647 0.9997286
vn 0.01557383 0.01955217 0.9996875
vn 0.02285105 0.01644968 0.9996036
vn 0.03046219 0.01158036 0.9994688
vn 0.03602574 0.005962342 0.9993331
vn 0.03924463 0.0009307746 0.9992292
vn 0.04173219 -0.003569415 0.9991224
vn 0.04369267 -0.00906965 0.9990038
vn 0.04233599 -0.01777169 0.9989454
vn 0.03897874 -0.02468933 0.998935
vn 0.03582177 -0.03032405 0.998898
vn 0.03237232 -0.03909113 0.9987111
vn 0.03058262 -0.04455029 0.9985389
vn 0.03294526 -0.04270103 -0.9985445
vn 0.03058306 -0.04455 -0.9985389
vn 0.03237262 -0.03909089 -0.9987111
vn 0.03425408 -0.03783277 -0.9986968
vn 0.03582194 -0.03032389 -0.998898
vn 0.03677904 -0.02923949 -0.9988956
vn 0.03897891 -0.02468919 -0.998935
vn 0.0391205 -0.02474445 -0.9989281
vn 0.04233613 -0.01777163 -0.9989454
vn 0.04221854 -0.01750378 -0.9989551
vn 0.04369275 -0.00906966 -0.9990038
vn 0.04471853 -0.005755678 -0.998983
vn 0.04173226 -0.003569421 -0.9991224
vn 0.04220332 -0.000733098 -0.9991088
vn 0.03924467 0.0009304701 -0.9992292
vn 0.03921193 0.002863765 -0.9992268
vn 0.03562857 0.007245854 -0.9993388
vn 0.03602554 0.005962432 -0.9993331
vn 0.03045574 0.01186274 -0.9994657
vn 0.03046224 0.01158051 -0.9994688
vn 0.02368524 0.01608622 -0.99959
vn 0.02285119 0.01644965 -0.9996036
vn 0.01673425 0.01917067 -0.9996762
vn 0.01557392 0.01955217 -0.9996875
vn 0.01054144 0.02124195 -0.9997188
vn 0.009029609 0.02147647 -0.9997286
vn 0.005435087 0.02274003 -0.9997267
vn 0.003260172 0.02266027 -0.9997379
vn -0.0002328995 0.02379205 -0.9997169
vn -0.002735754 0.02324678 -0.999726
vn -0.00861136 0.02346035 -0.9996877
vn -0.0110392 0.02229531 -0.9996905
vn -0.02328049 0.01901584 -0.9995481
vn -0.02176807 0.02092894 -0.999544
vn -0.04247978 0.01260275 -0.9990178
vn -0.04119431 0.01580316 -0.9990262
vn -0.06585945 0.004410133 -0.9978192
vn -0.06352403 0.009622027 -0.9979339
vn -0.08928299 -0.004386951 -0.9959966
vn -0.08939149 0.0008901032 -0.9959962
vn -0.1187725 -0.01731505 -0.9927705
vn -0.1179196 -0.01071656 -0.9929653
vn -0.1403365 -0.02659729 -0.9897465
vn -0.1408343 -0.02490153 -0.9897199
vn -0.1512897 -0.0361597 -0.9878278
vn -0.1533294 -0.04014632 -0.9873593
vn -0.156377 -0.04876631 -0.9864928
vn -0.156525 -0.05147609 -0.9863317
vn -0.1526033 -0.04957046 -0.9870436
vn -0.152943 -0.05055536 -0.986941
vn -0.0283765 0.02393079 -0.9993108
vn -0.01199936 0.0254303 -0.9996046
vn -0.003180494 0.02504533 -0.9996813
vn 0.003728237 0.02412221 -0.999702
vn 0.007920302 0.02252785 -0.9997149
vn 0.01219523 0.02088155 -0.9997076
vn 0.01739005 0.01896583 -0.9996689
vn 0.02360696 0.01632387 -0.999588
vn 0.02957201 0.01316371 -0.999476
vn 0.03477322 0.009185411 -0.9993531
vn 0.03882727 0.005247648 -0.9992322
vn 0.0421716 0.002401724 -0.9991075
vn 0.04541387 -0.001430537 -0.9989672
vn 0.04377529 -0.01332418 -0.9989526
vn 0.03837999 -0.02628127 -0.9989176
vn 0.03851468 -0.02645296 -0.9989078
vn 0.03623099 -0.03477659 -0.9987382
vn 0.03672706 -0.03973965 -0.9985349
vn -0.05360842 0.01844182 -0.9983917
vn -0.08076227 0.01165395 -0.9966652
vn -0.1163384 -0.006150884 -0.9931906
vn -0.1418331 -0.02471503 -0.989582
vn -0.1572048 -0.04743728 -0.9864261
vn -0.1559948 -0.05241886 -0.986366
vn -0.1531002 -0.05101113 -0.9868932
g fxMesh_Sculptor10Trail_0
f 3/3/3 2/2/2 1/1/1
f 4/4/4 3/3/3 1/1/1
f 3/3/3 5/5/5 2/2/2
f 5/5/5 6/6/6 2/2/2
f 5/5/5 7/7/7 6/6/6
f 7/7/7 8/8/8 6/6/6
f 7/7/7 9/9/9 8/8/8
f 9/9/9 10/10/10 8/8/8
f 9/9/9 11/11/11 10/10/10
f 11/11/11 12/12/12 10/10/10
f 11/11/11 13/13/13 12/12/12
f 13/13/13 14/14/14 12/12/12
f 13/13/13 15/15/15 14/14/14
f 15/15/15 16/16/16 14/14/14
f 15/15/15 17/17/17 16/16/16
f 17/17/17 18/18/18 16/16/16
f 19/19/19 18/18/18 17/17/17
f 20/20/20 19/19/19 17/17/17
f 21/21/21 19/19/19 20/20/20
f 22/22/22 21/21/21 20/20/20
f 23/23/23 21/21/21 22/22/22
f 24/24/24 23/23/23 22/22/22
f 25/25/25 23/23/23 24/24/24
f 26/26/26 25/25/25 24/24/24
f 27/27/27 25/25/25 26/26/26
f 28/28/28 27/27/27 26/26/26
f 29/29/29 27/27/27 28/28/28
f 30/30/30 29/29/29 28/28/28
f 31/31/31 29/29/29 30/30/30
f 32/32/32 31/31/31 30/30/30
f 33/33/33 31/31/31 32/32/32
f 34/34/34 33/33/33 32/32/32
f 35/35/35 33/33/33 34/34/34
f 36/36/36 35/35/35 34/34/34
f 36/36/36 37/37/37 35/35/35
f 37/37/37 38/38/38 35/35/35
f 37/37/37 39/39/39 38/38/38
f 39/39/39 40/40/40 38/38/38
f 39/39/39 41/41/41 40/40/40
f 41/41/41 42/42/42 40/40/40
f 41/41/41 43/43/43 42/42/42
f 43/43/43 44/44/44 42/42/42
f 43/43/43 45/45/45 44/44/44
f 45/45/45 46/46/46 44/44/44
f 45/45/45 47/47/47 46/46/46
f 47/47/47 48/48/48 46/46/46
f 47/47/47 49/49/49 48/48/48
f 49/49/49 50/50/50 48/48/48
f 51/51/51 37/37/37 36/36/36
f 52/52/52 51/51/51 36/36/36
f 53/53/53 39/39/39 37/37/37
f 51/51/51 53/53/53 37/37/37
f 54/54/54 41/41/41 39/39/39
f 53/53/53 54/54/54 39/39/39
f 55/55/55 43/43/43 41/41/41
f 54/54/54 55/55/55 41/41/41
f 56/56/56 45/45/45 43/43/43
f 55/55/55 56/56/56 43/43/43
f 57/57/57 47/47/47 45/45/45
f 56/56/56 57/57/57 45/45/45
f 58/58/58 49/49/49 47/47/47
f 57/57/57 58/58/58 47/47/47
f 52/52/52 36/36/36 34/34/34
f 59/59/59 52/52/52 34/34/34
f 59/59/59 34/34/34 32/32/32
f 60/60/60 59/59/59 32/32/32
f 60/60/60 32/32/32 61/61/61
f 32/32/32 30/30/30 61/61/61
f 61/61/61 30/30/30 62/62/62
f 30/30/30 28/28/28 62/62/62
f 62/62/62 28/28/28 63/63/63
f 28/28/28 26/26/26 63/63/63
f 63/63/63 26/26/26 64/64/64
f 26/26/26 24/24/24 64/64/64
f 64/64/64 24/24/24 65/65/65
f 24/24/24 22/22/22 65/65/65
f 65/65/65 22/22/22 66/66/66
f 22/22/22 20/20/20 66/66/66
f 66/66/66 20/20/20 67/67/67
f 20/20/20 17/17/17 67/67/67
f 67/67/67 17/17/17 68/68/68
f 17/17/17 15/15/15 68/68/68
f 68/68/68 15/15/15 13/13/13
f 69/69/69 68/68/68 13/13/13
f 69/69/69 13/13/13 11/11/11
f 70/70/70 69/69/69 11/11/11
f 70/70/70 11/11/11 9/9/9
f 71/71/71 70/70/70 9/9/9
f 71/71/71 9/9/9 7/7/7
f 72/72/72 71/71/71 7/7/7
f 72/72/72 7/7/7 5/5/5
f 73/73/73 72/72/72 5/5/5
f 73/73/73 5/5/5 3/3/3
f 74/74/74 73/73/73 3/3/3
f 74/74/74 3/3/3 4/4/4
f 75/75/75 74/74/74 4/4/4
f 78/78/78 77/77/77 76/76/76
f 79/79/79 78/78/78 76/76/76
f 80/80/80 78/78/78 79/79/79
f 81/81/81 80/80/80 79/79/79
f 82/82/82 80/80/80 81/81/81
f 83/83/83 82/82/82 81/81/81
f 84/84/84 82/82/82 83/83/83
f 85/85/85 84/84/84 83/83/83
f 86/86/86 84/84/84 85/85/85
f 87/87/87 86/86/86 85/85/85
f 88/88/88 86/86/86 87/87/87
f 89/89/89 88/88/88 87/87/87
f 90/90/90 88/88/88 89/89/89
f 91/91/91 90/90/90 89/89/89
f 91/91/91 92/92/92 90/90/90
f 92/92/92 93/93/93 90/90/90
f 92/92/92 94/94/94 93/93/93
f 94/94/94 95/95/95 93/93/93
f 94/94/94 96/96/96 95/95/95
f 96/96/96 97/97/97 95/95/95
f 96/96/96 98/98/98 97/97/97
f 98/98/98 99/99/99 97/97/97
f 98/98/98 100/100/100 99/99/99
f 100/100/100 101/101/101 99/99/99
f 100/100/100 102/102/102 101/101/101
f 102/102/102 103/103/103 101/101/101
f 102/102/102 104/104/104 103/103/103
f 104/104/104 105/105/105 103/103/103
f 104/104/104 106/106/106 105/105/105
f 106/106/106 107/107/107 105/105/105
f 108/108/108 107/107/107 106/106/106
f 109/109/109 108/108/108 106/106/106
f 110/110/110 108/108/108 109/109/109
f 111/111/111 110/110/110 109/109/109
f 112/112/112 110/110/110 111/111/111
f 113/113/113 112/112/112 111/111/111
f 114/114/114 112/112/112 113/113/113
f 115/115/115 114/114/114 113/113/113
f 116/116/116 114/114/114 115/115/115
f 117/117/117 116/116/116 115/115/115
f 118/118/118 116/116/116 117/117/117
f 119/119/119 118/118/118 117/117/117
f 120/120/120 118/118/118 119/119/119
f 121/121/121 120/120/120 119/119/119
f 122/122/122 120/120/120 121/121/121
f 123/123/123 122/122/122 121/121/121
f 124/124/124 122/122/122 123/123/123
f 125/125/125 124/124/124 123/123/123
f 113/113/113 111/111/111 126/126/126
f 126/126/126 111/111/111 109/109/109
f 127/127/127 126/126/126 109/109/109
f 127/127/127 109/109/109 106/106/106
f 128/128/128 127/127/127 106/106/106
f 128/128/128 106/106/106 104/104/104
f 129/129/129 128/128/128 104/104/104
f 129/129/129 104/104/104 102/102/102
f 130/130/130 129/129/129 102/102/102
f 130/130/130 102/102/102 100/100/100
f 131/131/131 130/130/130 100/100/100
f 131/131/131 100/100/100 98/98/98
f 132/132/132 131/131/131 98/98/98
f 132/132/132 98/98/98 96/96/96
f 133/133/133 132/132/132 96/96/96
f 133/133/133 96/96/96 94/94/94
f 134/134/134 133/133/133 94/94/94
f 134/134/134 94/94/94 92/92/92
f 135/135/135 134/134/134 92/92/92
f 135/135/135 92/92/92 136/136/136
f 92/92/92 91/91/91 136/136/136
f 136/136/136 91/91/91 137/137/137
f 91/91/91 89/89/89 137/137/137
f 137/137/137 89/89/89 138/138/138
f 89/89/89 87/87/87 138/138/138
f 138/138/138 87/87/87 139/139/139
f 87/87/87 85/85/85 139/139/139
f 139/139/139 85/85/85 140/140/140
f 85/85/85 83/83/83 140/140/140
f 140/140/140 83/83/83 141/141/141
f 83/83/83 81/81/81 141/141/141
f 141/141/141 81/81/81 142/142/142
f 81/81/81 79/79/79 142/142/142
f 142/142/142 79/79/79 143/143/143
f 79/79/79 76/76/76 143/143/143
f 144/144/144 113/113/113 126/126/126
f 115/115/115 113/113/113 144/144/144
f 145/145/145 115/115/115 144/144/144
f 117/117/117 115/115/115 145/145/145
f 146/146/146 117/117/117 145/145/145
f 119/119/119 117/117/117 146/146/146
f 147/147/147 119/119/119 146/146/146
f 121/121/121 119/119/119 147/147/147
f 148/148/148 121/121/121 147/147/147
f 123/123/123 121/121/121 148/148/148
f 149/149/149 123/123/123 148/148/148
f 125/125/125 123/123/123 149/149/149
f 150/150/150 125/125/125 149/149/149
