g fxMesh_Sculptor01Lv4Trails2_3
v 4.314833 1.24274 5.281534
v 3.033946 0.8945698 2.434922
v 5.088806 1.472594 4.419433
v 2.26988 0.6675107 3.30655
v 1.350884 0.4376011 0.9002792
v 0.6282067 0.222059 1.809427
v -0.06128475 0.05351526 -0.1944232
v -0.671627 -0.1297621 0.8008999
v -1.349803 -0.3246606 -0.8470712
v -1.676957 -0.41757 0.2881399
v -2.660547 -0.7751384 -0.9261957
v -2.434665 -0.6693609 0.2370261
v -3.797068 -1.251074 -0.2996463
v -3.099359 -0.9564144 0.6123862
v -4.671356 -1.718293 0.8060864
v -3.791923 -1.336069 1.495715
v 5.088806 1.472594 4.419433
v 2.36138 0.4198503 3.281911
v 4.408193 0.9956306 5.258693
v 3.033946 0.8945698 2.434922
v 0.7177887 -0.02629668 1.782938
v 1.350884 0.4376011 0.9002792
v -0.5836654 -0.3794443 0.7725517
v -0.06128475 0.05351526 -0.1944232
v -1.588976 -0.6709107 0.2575037
v -1.349803 -0.3246606 -0.8470712
v -2.34545 -0.9265547 0.2043381
v -2.660547 -0.7751384 -0.9261957
v -3.008356 -1.207743 0.5802206
v -3.797068 -1.251074 -0.2996463
v -3.698349 -1.581797 1.461612
v -4.671356 -1.718293 0.8060864
vt 0.9999999 0
vt 0.7427902 0.9999999
vt 0.9999999 0.9999999
vt 0.7427901 0
vt 0.5408478 1
vt 0.5408478 0
vt 0.3887152 1
vt 0.3887152 0
vt 0.2785638 1
vt 0.2785638 0
vt 0.195242 1
vt 0.1952419 0
vt 0.1111218 1
vt 0.1111218 0
vt -5.960464E-08 1
vt -1.03316E-07 0
vt 0.9999999 0.9999999
vt 0.7427901 0
vt 0.9999999 0
vt 0.7427902 0.9999999
vt 0.5408478 0
vt 0.5408478 1
vt 0.3887152 0
vt 0.3887152 1
vt 0.2785638 0
vt 0.2785638 1
vt 0.1952419 0
vt 0.195242 1
vt 0.1111218 0
vt 0.1111218 1
vt -1.03316E-07 0
vt -5.960464E-08 1
vn -0.2772563 0.9607687 0.007244603
vn -0.2747401 0.9614704 0.009628039
vn -0.2772577 0.9607683 0.007245272
vn -0.2746878 0.9614852 0.00962985
vn -0.2717221 0.9622985 0.01219811
vn -0.2713926 0.9623929 0.01207999
vn -0.2766469 0.9609413 0.007631334
vn -0.2747861 0.9614825 0.006627495
vn -0.3010886 0.9535695 -0.0071361
vn -0.2977269 0.9545931 -0.01053009
vn -0.3554168 0.9346061 -0.01379602
vn -0.3530703 0.9354938 -0.01388211
vn -0.4125046 0.9107636 0.01870011
vn -0.4126186 0.9105918 0.02384228
vn -0.4312567 0.9011315 0.0444943
vn -0.4306304 0.9011595 0.04968742
vn 0.4158805 -0.8933084 -0.1704216
vn 0.411246 -0.8945985 -0.1748432
vn 0.415879 -0.8933101 -0.1704165
vn 0.4112775 -0.8945904 -0.1748106
vn 0.3995708 -0.8977874 -0.1852595
vn 0.3996634 -0.8977823 -0.1850841
vn 0.3805102 -0.9031326 -0.1989059
vn 0.3810409 -0.9031098 -0.1979913
vn 0.3473841 -0.9135282 -0.2116378
vn 0.3493437 -0.9131666 -0.2099663
vn 0.3049552 -0.9288772 -0.2102127
vn 0.3048939 -0.929005 -0.2097365
vn 0.2737324 -0.9411023 -0.1984868
vn 0.2719043 -0.9416624 -0.1983432
vn 0.2639744 -0.9451704 -0.1922768
vn 0.2621957 -0.9456667 -0.1922703
g fxMesh_Sculptor01Lv4Trails2_3_0
f 3/3/3 2/2/2 1/1/1
f 4/4/4 1/1/1 2/2/2
f 2/2/2 5/5/5 4/4/4
f 6/6/6 4/4/4 5/5/5
f 5/5/5 7/7/7 6/6/6
f 8/8/8 6/6/6 7/7/7
f 7/7/7 9/9/9 8/8/8
f 10/10/10 8/8/8 9/9/9
f 9/9/9 11/11/11 10/10/10
f 12/12/12 10/10/10 11/11/11
f 11/11/11 13/13/13 12/12/12
f 14/14/14 12/12/12 13/13/13
f 13/13/13 15/15/15 14/14/14
f 16/16/16 14/14/14 15/15/15
f 19/19/19 18/18/18 17/17/17
f 20/20/20 17/17/17 18/18/18
f 18/18/18 21/21/21 20/20/20
f 22/22/22 20/20/20 21/21/21
f 21/21/21 23/23/23 22/22/22
f 24/24/24 22/22/22 23/23/23
f 23/23/23 25/25/25 24/24/24
f 26/26/26 24/24/24 25/25/25
f 25/25/25 27/27/27 26/26/26
f 28/28/28 26/26/26 27/27/27
f 27/27/27 29/29/29 28/28/28
f 30/30/30 28/28/28 29/29/29
f 29/29/29 31/31/31 30/30/30
f 32/32/32 30/30/30 31/31/31
