g Sword_2_Trail
v 0.244325 0.6194711 0.6362646
v -0.3714502 0.6194711 0.6908261
v -0.2597971 1.366803 0.08590101
v 0.2688178 1.3679 0.4262676
v 0.2110994 2.052607 -0.2062098
v 0.3023956 2.050967 0.4118679
v 0.7091005 2.651264 -0.151031
v 0.5267524 2.649714 0.4422809
v 1.170863 3.141829 0.0597002
v 0.8547863 3.140503 0.592936
v 1.575134 3.502597 0.3569137
v 1.157305 3.500462 0.8165943
v 1.8739 3.711265 0.7145799
v 1.331877 3.707314 1.022977
v 2.029587 3.815446 1.076119
v 1.42815 3.812535 1.247987
v 2.073184 3.877794 1.521322
v 1.442365 3.871883 1.44357
v 1.883753 3.886424 1.996084
v 1.367743 3.881647 1.626144
v 1.434541 3.834475 2.394476
v 1.103326 3.833092 1.863942
v 0.720723 3.716426 2.712629
v 0.5262261 3.716147 2.123149
v -0.3215013 3.523894 2.964472
v -0.4274732 3.523597 2.352144
v -1.59438 3.2831 3.001252
v -1.513377 3.282564 2.381056
v -2.684316 3.046255 2.682099
v -2.414463 3.045702 2.117693
v -3.545406 2.806231 2.090561
v -3.113533 2.805562 1.637998
v -4.139557 2.555753 1.310137
v -3.585582 2.554842 1.017959
v -4.428735 2.287462 0.419551
v -3.805546 2.286325 0.3383511
v -4.3631 1.993512 -0.4977048
v -3.760162 1.993277 -0.3248319
v -4.018816 1.716039 -1.237283
v -3.505181 1.716673 -0.8779851
v -3.50141 1.494044 -1.750141
v -3.146025 1.495548 -1.23492
v -2.871568 1.317055 -2.053819
v -2.677473 1.318181 -1.462683
v -2.183519 1.173497 -2.204108
v -2.100751 1.173956 -1.590071
v -1.465706 1.051976 -2.260367
v -1.442872 1.052076 -1.642312
v -0.4850146 0.9347559 -2.273425
v -0.9924155 0.9480872 -1.653169
v -0.2340763 0.8779004 -1.019403
v -0.8401842 0.8779004 -0.8977919
v 0.5722629 0.6238148 2.999395
v -0.03384521 0.6238148 3.121005
v 0.5834575 0.5487018 3.069339
v 0.3581297 0.5718852 5.06046
v 0.6500993 0.4545106 2.879424
v 1.220152 0.4544801 3.118912
v 1.041717 0.3650223 1.869325
v 1.626706 0.3648499 2.071364
v 1.2984 0.308201 0.9542984
v 1.907205 0.3075102 1.076395
v 1.362347 0.3007115 0.1898714
v 1.98896 0.2982738 0.152293
v 1.208288 0.3583921 -0.3696712
v 1.766743 0.3537807 -0.6814087
v 0.8139824 0.4937516 -0.7660867
v 1.132305 0.4940002 -1.309122
v 0.2331689 0.6304052 -1.012266
v 0.3841058 0.6327103 -1.61949
v -0.2683332 0.6865059 -1.054222
v -0.3208155 0.689199 -1.678044
v -0.735529 0.6782516 -0.9438592
v -0.9619787 0.6798251 -1.524086
v -1.198968 0.6211168 -0.7039837
v -1.533347 0.6216677 -1.22602
v -1.664989 0.5311369 -0.363999
v -2.053096 0.5312463 -0.8456495
v -1.819213 0.4577731 -0.2414927
v -2.860128 0.391654 -0.1565913
v -1.305861 0.5072524 0.08430311
v -1.63424 0.5072524 0.6080616
v 3.042237 0.9199464 2.810423
v 2.713857 0.9199464 3.334181
vt 1 8.940697E-08
vt 0.9999999 1
vt 0.9780307 1
vt 0.9780307 8.844666E-08
vt 0.958865 1
vt 0.958865 8.76089E-08
vt 0.9408523 1
vt 0.9408524 8.682154E-08
vt 0.9240036 1
vt 0.9240036 8.608506E-08
vt 0.9093994 1
vt 0.9093995 8.544669E-08
vt 0.8985292 1
vt 0.8985293 8.497154E-08
vt 0.8898916 1
vt 0.8898916 8.459398E-08
vt 0.8814731 1
vt 0.8814731 8.4226E-08
vt 0.8723625 1
vt 0.8723626 8.382776E-08
vt 0.8600034 1
vt 0.8600034 8.328752E-08
vt 0.8415728 1
vt 0.8415728 8.24819E-08
vt 0.8147174 1
vt 0.8147175 8.130801E-08
vt 0.7837536 1
vt 0.7837536 7.995454E-08
vt 0.7563961 1
vt 0.7563961 7.87587E-08
vt 0.7312937 1
vt 0.7312937 7.766144E-08
vt 0.7077646 1
vt 0.7077646 7.663295E-08
vt 0.6854484 1
vt 0.6854484 7.565748E-08
vt 0.663726 1
vt 0.663726 7.470796E-08
vt 0.6440706 1
vt 0.6440706 7.38488E-08
vt 0.627203 1
vt 0.627203 7.311149E-08
vt 0.6108671 1
vt 0.6108671 7.239743E-08
vt 0.5938129 1
vt 0.5938129 7.165197E-08
vt 0.5757973 1
vt 0.5757974 7.086448E-08
vt 0.5571765 1
vt 0.5571765 7.005054E-08
vt 0.5307769 1
vt 0.5307769 6.889658E-08
vt 0.4251784 1
vt 0.4251785 6.428072E-08
vt 0.3987788 1
vt 0.3987789 6.312676E-08
vt 0.3687637 1
vt 0.3687637 6.181475E-08
vt 0.3402954 1
vt 0.3402954 6.057036E-08
vt 0.3147442 1
vt 0.3147443 5.945349E-08
vt 0.2929537 1
vt 0.2929537 5.850099E-08
vt 0.2743424 1
vt 0.2743425 5.768747E-08
vt 0.2553463 1
vt 0.2553464 5.685712E-08
vt 0.2364866 1
vt 0.2364867 5.603274E-08
vt 0.2208551 1
vt 0.2208552 5.534946E-08
vt 0.206204 1
vt 0.2062041 5.470904E-08
vt 0.1911364 1
vt 0.1911365 5.405042E-08
vt 0.175269 1
vt 0.1752691 5.335683E-08
vt 0.1588648 1
vt 0.1588649 5.263978E-08
vt 0.1323873 1
vt 0.1323873 5.148241E-08
vt 0 1
vt 0 4.569558E-08
vn -0.2126889 0.4823344 0.8497747
vn -0.2126889 0.4823343 0.8497747
vn -0.5178888 0.4661395 0.7172901
vn -0.5136983 0.4667702 0.7198885
vn -0.8497291 0.4800765 0.2179153
vn -0.8493448 0.4794769 0.2207153
vn -0.7785029 0.5994897 -0.1858636
vn -0.7789635 0.5990945 -0.1852067
vn -0.6021233 0.7221441 -0.3405222
vn -0.6018835 0.7222961 -0.340624
vn -0.414868 0.8264679 -0.3805724
vn -0.4127702 0.8274904 -0.3806316
vn -0.2173989 0.9170693 -0.334248
vn -0.2206941 0.9156574 -0.3359547
vn -0.07451937 0.9687467 -0.2365938
vn -0.07235806 0.9694168 -0.234511
vn -0.0100678 0.9941537 -0.1075036
vn -0.00967331 0.9944516 -0.1047493
vn -0.03941116 0.9990094 0.02066198
vn -0.03890749 0.9990413 0.02006781
vn -0.1146389 0.9910596 0.06825546
vn -0.1138969 0.9911455 0.06825028
vn -0.1640866 0.9848382 0.0562963
vn -0.1638999 0.9848607 0.05644678
vn -0.1892827 0.9816204 0.02436323
vn -0.1898006 0.9815447 0.02335876
vn -0.2067606 0.9779194 -0.03039242
vn -0.2067465 0.9779246 -0.03032002
vn -0.207687 0.9728206 -0.1024025
vn -0.2077089 0.9728314 -0.102255
vn -0.1831456 0.9664537 -0.180069
vn -0.18318 0.9664606 -0.179997
vn -0.1282966 0.9577074 -0.2575589
vn -0.1281786 0.9576897 -0.2576832
vn -0.03292365 0.9463803 -0.3213728
vn -0.03241454 0.9463235 -0.3215915
vn 0.09264225 0.9367944 -0.3373925
vn 0.09050716 0.9368891 -0.3377091
vn 0.1973271 0.9383363 -0.2838785
vn 0.1974083 0.9383453 -0.2837922
vn 0.2441075 0.9524304 -0.1824498
vn 0.2440354 0.9522989 -0.1832311
vn 0.2300687 0.9692277 -0.08755647
vn 0.2304334 0.9690742 -0.08829249
vn 0.1920178 0.9808562 -0.03240733
vn 0.1923347 0.9807846 -0.03269411
vn 0.1632417 0.986436 0.01720853
vn 0.1633868 0.9864202 0.01673181
vn 0.100333 0.9936203 0.05149653
vn 0.1007644 0.9935776 0.0514794
vn 0.02989024 0.9979212 0.05709547
vn 0.02989214 0.9979212 0.05709508
vn 0.067624 0.9964855 0.04943384
vn 0.06808298 0.9964589 0.04934007
vn 0.1373962 0.9905161 -0.000450637
vn 0.136304 0.9906635 0.002654913
vn 0.08753476 0.9946392 -0.05505095
vn 0.08926337 0.9945191 -0.05444162
vn 0.02233669 0.9976149 -0.06531242
vn 0.02242527 0.997604 -0.06544717
vn 0.009386364 0.9994379 -0.03218193
vn 0.009529361 0.9994197 -0.03270246
vn 0.01563894 0.9993411 0.0327535
vn 0.01518391 0.9993977 0.0312035
vn 0.08070815 0.9914302 0.1027245
vn 0.07965364 0.9915751 0.102147
vn 0.1522424 0.9829592 0.1030227
vn 0.153774 0.9829502 0.1008093
vn 0.1326291 0.9902711 0.04210261
vn 0.1328499 0.9902344 0.04226977
vn 0.03919582 0.9991897 0.00914889
vn 0.03862752 0.999212 0.009124556
vn -0.05025044 0.99839 0.02630923
vn -0.05097435 0.9983429 0.02670077
vn -0.102492 0.9925546 0.06580874
vn -0.1027828 0.9925001 0.06617601
vn -0.1035718 0.9874379 0.1193283
vn -0.103229 0.9873801 0.1201013
vn -0.07817712 0.995393 0.05550687
vn -0.07807858 0.9954526 0.0545707
vn -0.06766217 0.9967822 -0.04297841
vn -0.06766243 0.9967822 -0.04297801
vn -0.06791259 0.9967823 -0.04257904
vn -0.0679126 0.9967823 -0.04257904
g Sword_2_Trail_0
f 3/3/3 2/2/2 1/1/1
f 4/4/4 3/3/3 1/1/1
f 5/5/5 3/3/3 4/4/4
f 6/6/6 5/5/5 4/4/4
f 7/7/7 5/5/5 6/6/6
f 8/8/8 7/7/7 6/6/6
f 9/9/9 7/7/7 8/8/8
f 10/10/10 9/9/9 8/8/8
f 11/11/11 9/9/9 10/10/10
f 12/12/12 11/11/11 10/10/10
f 13/13/13 11/11/11 12/12/12
f 14/14/14 13/13/13 12/12/12
f 15/15/15 13/13/13 14/14/14
f 16/16/16 15/15/15 14/14/14
f 17/17/17 15/15/15 16/16/16
f 18/18/18 17/17/17 16/16/16
f 19/19/19 17/17/17 18/18/18
f 20/20/20 19/19/19 18/18/18
f 21/21/21 19/19/19 20/20/20
f 22/22/22 21/21/21 20/20/20
f 23/23/23 21/21/21 22/22/22
f 24/24/24 23/23/23 22/22/22
f 25/25/25 23/23/23 24/24/24
f 26/26/26 25/25/25 24/24/24
f 27/27/27 25/25/25 26/26/26
f 28/28/28 27/27/27 26/26/26
f 29/29/29 27/27/27 28/28/28
f 30/30/30 29/29/29 28/28/28
f 31/31/31 29/29/29 30/30/30
f 32/32/32 31/31/31 30/30/30
f 33/33/33 31/31/31 32/32/32
f 34/34/34 33/33/33 32/32/32
f 35/35/35 33/33/33 34/34/34
f 36/36/36 35/35/35 34/34/34
f 37/37/37 35/35/35 36/36/36
f 38/38/38 37/37/37 36/36/36
f 39/39/39 37/37/37 38/38/38
f 40/40/40 39/39/39 38/38/38
f 41/41/41 39/39/39 40/40/40
f 42/42/42 41/41/41 40/40/40
f 43/43/43 41/41/41 42/42/42
f 44/44/44 43/43/43 42/42/42
f 45/45/45 43/43/43 44/44/44
f 46/46/46 45/45/45 44/44/44
f 47/47/47 45/45/45 46/46/46
f 48/48/48 47/47/47 46/46/46
f 49/49/49 47/47/47 48/48/48
f 50/50/50 49/49/49 48/48/48
f 51/51/51 49/49/49 50/50/50
f 52/52/52 51/51/51 50/50/50
f 53/53/53 51/51/51 52/52/52
f 54/54/54 53/53/53 52/52/52
f 55/55/55 53/53/53 54/54/54
f 56/56/56 55/55/55 54/54/54
f 57/57/57 55/55/55 56/56/56
f 58/58/58 57/57/57 56/56/56
f 59/59/59 57/57/57 58/58/58
f 60/60/60 59/59/59 58/58/58
f 61/61/61 59/59/59 60/60/60
f 62/62/62 61/61/61 60/60/60
f 63/63/63 61/61/61 62/62/62
f 64/64/64 63/63/63 62/62/62
f 65/65/65 63/63/63 64/64/64
f 66/66/66 65/65/65 64/64/64
f 67/67/67 65/65/65 66/66/66
f 68/68/68 67/67/67 66/66/66
f 69/69/69 67/67/67 68/68/68
f 70/70/70 69/69/69 68/68/68
f 71/71/71 69/69/69 70/70/70
f 72/72/72 71/71/71 70/70/70
f 73/73/73 71/71/71 72/72/72
f 74/74/74 73/73/73 72/72/72
f 75/75/75 73/73/73 74/74/74
f 76/76/76 75/75/75 74/74/74
f 77/77/77 75/75/75 76/76/76
f 78/78/78 77/77/77 76/76/76
f 79/79/79 77/77/77 78/78/78
f 80/80/80 79/79/79 78/78/78
f 81/81/81 79/79/79 80/80/80
f 82/82/82 81/81/81 80/80/80
f 83/83/83 81/81/81 82/82/82
f 84/84/84 83/83/83 82/82/82
