g Sword_1_Trail
v 0.1454387 0.6093857 0.8925024
v -0.2727412 0.6093858 0.4372203
v 0.2746965 1.422686 -0.2072349
v 0.7403826 1.4924 0.1958015
v 0.763767 2.272531 -1.064314
v 1.26497 2.4029 -0.7221144
v 1.026382 2.985603 -1.94218
v 1.566523 3.208839 -1.71096
v 0.9301631 3.373069 -2.595349
v 1.456655 3.793684 -2.674093
v 0.5222679 3.408438 -2.91345
v 0.5674426 3.878561 -3.379761
v -0.6928632 2.949086 -2.962799
v -0.9263219 3.30073 -3.419523
v -2.917472 1.797351 -2.55101
v -3.211215 2.116421 -2.994299
v -4.111559 1.033854 -2.110047
v -4.532923 1.275282 -2.512197
v -4.455293 0.6471018 -1.730424
v -5.110018 0.6425247 -1.899912
v -4.381237 0.478248 -1.430575
v -4.90868 0.2307135 -1.156223
v -3.921625 0.34893 -0.9598604
v -4.295415 0.0719297 -0.548977
v -3.236221 0.2818382 -0.4485083
v -3.509202 -0.00279892 0.03484131
v 3.545723 1.158672 2.711152
v 3.545114 0.9098701 3.322984
v 3.752476 1.177109 2.631069
v 3.993639 0.9505493 3.154174
v 4.015461 1.203137 2.4964
v 4.34224 0.9848956 2.977993
v 4.215226 1.227205 2.329187
v 4.666682 1.023718 2.710442
v 4.359941 1.2518 2.099899
v 4.915099 1.065788 2.319091
v 4.449018 1.280929 1.74742
v 5.04439 1.108357 1.803101
v 4.448385 1.315799 1.218764
v 5.044936 1.151476 1.153498
v 4.365038 1.328387 0.8914885
v 4.916708 1.172392 0.6302027
v 4.23815 1.323384 0.7281587
v 4.624578 1.160794 0.2552632
v 4.048455 1.305177 0.6321973
v 4.22929 1.122312 0.06279434
v 3.760324 1.270058 0.5895861
v 3.807979 1.070679 0.004359131
v 3.396775 1.221102 0.599983
v 3.379108 1.01284 0.01783691
v 3.013839 1.167414 0.6393877
v 2.928135 0.949712 0.06476608
v -3.959449 0.3218774 2.628814
v -3.652759 0.1520876 1.940607
v -4.310838 0.7773903 1.510451
v -3.86955 0.4371316 1.242517
v -4.5557 1.12327 0.6083174
v -4.10485 0.7697496 0.3745187
v -4.714548 1.412296 -0.2654835
v -4.250134 1.035108 -0.4291896
v -4.737404 1.612747 -1.100349
v -4.267358 1.20287 -1.132892
v -4.55822 1.683431 -1.885513
v -4.134558 1.252169 -1.701033
v -4.105166 1.567427 -2.561684
v -3.835545 1.177869 -2.146602
v -3.436082 1.358868 -2.985524
v -3.34434 1.026812 -2.460612
v -2.693893 1.190566 -3.065868
v -2.79755 0.9024286 -2.522278
v -1.93469 1.060348 -2.881954
v -2.164813 0.7935031 -2.37153
v -1.166889 0.9564558 -2.519587
v -1.463458 0.6984109 -2.041732
v -0.3908599 0.8686063 -2.044492
v -0.7188569 0.6140477 -1.58633
v 0.5229253 0.7745492 -1.423482
v -0.08626792 0.549277 -1.157672
v 0.02266729 0.6665205 3.562268
v -0.5522715 0.4481083 3.499837
vt 0.9999999 -5.960464E-08
vt 0.9999999 0.9999999
vt 0.9747908 0.9999999
vt 0.9747908 -6.070658E-08
vt 0.9469848 0.9999999
vt 0.9469848 -6.192201E-08
vt 0.9215051 0.9999999
vt 0.9215051 -6.303576E-08
vt 0.9019467 0.9999999
vt 0.9019467 -6.389069E-08
vt 0.8848686 0.9999999
vt 0.8848687 -6.463719E-08
vt 0.8549552 0.9999999
vt 0.8549552 -6.594475E-08
vt 0.8018995 0.9999999
vt 0.8018996 -6.826389E-08
vt 0.7697035 0.9999999
vt 0.7697035 -6.967122E-08
vt 0.7522374 0.9999999
vt 0.7522374 -7.043469E-08
vt 0.7396047 0.9999999
vt 0.7396047 -7.098689E-08
vt 0.7236491 0.9999999
vt 0.7236491 -7.168433E-08
vt 0.704684 0.9999999
vt 0.7046841 -7.251331E-08
vt 0.5462601 0.9999999
vt 0.5462601 -7.943824E-08
vt 0.5390092 0.9999999
vt 0.5390092 -7.975519E-08
vt 0.5319102 0.9999999
vt 0.5319102 -8.00655E-08
vt 0.5248604 0.9999999
vt 0.5248604 -8.037365E-08
vt 0.5172564 0.9999999
vt 0.5172564 -8.070603E-08
vt 0.5079963 0.9999999
vt 0.5079963 -8.111081E-08
vt 0.4958245 0.9999999
vt 0.4958246 -8.164285E-08
vt 0.4867833 0.9999999
vt 0.4867833 -8.203806E-08
vt 0.4797499 0.9999999
vt 0.47975 -8.234549E-08
vt 0.4730016 0.9999999
vt 0.4730017 -8.264047E-08
vt 0.4655611 0.9999999
vt 0.4655612 -8.296571E-08
vt 0.4573155 0.9999999
vt 0.4573156 -8.332613E-08
vt 0.4485903 0.9999999
vt 0.4485904 -8.370752E-08
vt 0.3023235 0.9999999
vt 0.3023236 -9.010105E-08
vt 0.2812726 0.9999999
vt 0.2812727 -9.102121E-08
vt 0.261115 0.9999999
vt 0.2611151 -9.190233E-08
vt 0.242636 0.9999999
vt 0.2426361 -9.271007E-08
vt 0.2263238 0.9999999
vt 0.2263238 -9.34231E-08
vt 0.2119551 0.9999999
vt 0.2119551 -9.405117E-08
vt 0.1978967 0.9999999
vt 0.1978968 -9.466569E-08
vt 0.1832466 0.9999999
vt 0.1832467 -9.530606E-08
vt 0.1695435 0.9999999
vt 0.1695436 -9.590505E-08
vt 0.1545824 0.9999999
vt 0.1545824 -9.655902E-08
vt 0.137717 0.9999999
vt 0.1377171 -9.729622E-08
vt 0.1192555 0.9999999
vt 0.1192555 -9.81032E-08
vt 0.09992111 0.9999999
vt 0.09992117 -9.894833E-08
vt -5.960464E-08 0.9999999
vt -5.960464E-08 -1.03316E-07
vn -0.5134314 0.717699 0.4704215
vn -0.5134314 0.7176989 0.4704215
vn -0.5065644 0.729296 0.4599127
vn -0.5065634 0.7292978 0.4599111
vn -0.4995244 0.7401791 0.4501227
vn -0.4995249 0.7401869 0.4501091
vn -0.5000755 0.7257813 0.4724047
vn -0.5000513 0.7265803 0.4712004
vn -0.4645351 0.6846648 0.5616416
vn -0.4687904 0.6880614 0.5539016
vn -0.3609771 0.6724475 0.6461501
vn -0.3538153 0.6739644 0.6485266
vn -0.2640591 0.6955168 0.6682284
vn -0.2623318 0.6962594 0.6681353
vn -0.2289322 0.7122974 0.6634926
vn -0.2291614 0.7121658 0.6635548
vn -0.1907086 0.7410246 0.6438266
vn -0.1921807 0.7398229 0.6447702
vn -0.151342 0.8081064 0.5692624
vn -0.1518221 0.8066683 0.5711709
vn -0.1622004 0.8674533 0.4703359
vn -0.1652658 0.8693815 0.4656855
vn -0.2023351 0.8869617 0.415162
vn -0.2029014 0.8870839 0.4146241
vn -0.2489398 0.889531 0.3830974
vn -0.2494825 0.8895203 0.382769
vn -0.1129069 0.9205218 0.3740209
vn -0.1150085 0.9202946 0.3739398
vn 0.07526655 0.9270657 0.3672659
vn 0.0748968 0.9270256 0.3674427
vn 0.1223788 0.9326174 0.3394824
vn 0.121661 0.9325404 0.3399513
vn 0.18757 0.9413135 0.2806179
vn 0.1870684 0.941244 0.2811852
vn 0.2423641 0.9506745 0.1935911
vn 0.2424235 0.9506878 0.1934517
vn 0.2675191 0.9578735 0.1044604
vn 0.2675676 0.9579065 0.1040325
vn 0.2668797 0.9635714 0.01747818
vn 0.2670586 0.9634925 0.01902918
vn 0.2259016 0.9686841 -0.1030512
vn 0.2264582 0.9686767 -0.1018928
vn 0.12095 0.9647582 -0.2336937
vn 0.1196379 0.9646646 -0.2347527
vn -0.008342442 0.9513698 -0.3079382
vn -0.01022451 0.9511656 -0.3085118
vn -0.1020224 0.9391794 -0.3279231
vn -0.1027606 0.9390837 -0.3279665
vn -0.1499578 0.932399 -0.3288538
vn -0.150174 0.9323691 -0.3288398
vn -0.1837709 0.928103 -0.3238101
vn -0.1839006 0.9280871 -0.3237824
vn 0.2523982 0.9597051 -0.1235368
vn 0.2550164 0.9591798 -0.1222326
vn 0.6484337 0.7534797 0.1086367
vn 0.6484357 0.7534732 0.1086706
vn 0.650466 0.7499076 0.1205512
vn 0.6504869 0.7498745 0.1206442
vn 0.6538674 0.7427796 0.144
vn 0.6538952 0.742701 0.1442787
vn 0.6528828 0.7340778 0.1867454
vn 0.6528084 0.7339552 0.1874858
vn 0.6339866 0.7312626 0.2516268
vn 0.6336266 0.7312947 0.252439
vn 0.5563653 0.7546268 0.3478451
vn 0.5586309 0.7539099 0.345762
vn 0.3723185 0.8119147 0.449637
vn 0.3733352 0.8116437 0.4492831
vn 0.1401106 0.8635371 0.4844303
vn 0.1424665 0.8630612 0.4845911
vn -0.02327741 0.8904197 0.4545448
vn -0.02220881 0.8902556 0.4549195
vn -0.1127174 0.9019547 0.4168603
vn -0.1123606 0.9019107 0.4170519
vn -0.1552399 0.9065465 0.3925225
vn -0.1551297 0.906535 0.3925928
vn -0.2672918 0.9449477 0.1887566
vn -0.2668231 0.9448777 0.1897673
vn -0.3531016 0.9354633 -0.01508744
vn -0.3531017 0.9354633 -0.01508744
g Sword_1_Trail_0
f 3/3/3 2/2/2 1/1/1
f 4/4/4 3/3/3 1/1/1
f 5/5/5 3/3/3 4/4/4
f 6/6/6 5/5/5 4/4/4
f 7/7/7 5/5/5 6/6/6
f 8/8/8 7/7/7 6/6/6
f 9/9/9 7/7/7 8/8/8
f 10/10/10 9/9/9 8/8/8
f 11/11/11 9/9/9 10/10/10
f 12/12/12 11/11/11 10/10/10
f 13/13/13 11/11/11 12/12/12
f 14/14/14 13/13/13 12/12/12
f 15/15/15 13/13/13 14/14/14
f 16/16/16 15/15/15 14/14/14
f 17/17/17 15/15/15 16/16/16
f 18/18/18 17/17/17 16/16/16
f 19/19/19 17/17/17 18/18/18
f 20/20/20 19/19/19 18/18/18
f 21/21/21 19/19/19 20/20/20
f 22/22/22 21/21/21 20/20/20
f 23/23/23 21/21/21 22/22/22
f 24/24/24 23/23/23 22/22/22
f 25/25/25 23/23/23 24/24/24
f 26/26/26 25/25/25 24/24/24
f 27/27/27 25/25/25 26/26/26
f 28/28/28 27/27/27 26/26/26
f 29/29/29 27/27/27 28/28/28
f 30/30/30 29/29/29 28/28/28
f 31/31/31 29/29/29 30/30/30
f 32/32/32 31/31/31 30/30/30
f 33/33/33 31/31/31 32/32/32
f 34/34/34 33/33/33 32/32/32
f 35/35/35 33/33/33 34/34/34
f 36/36/36 35/35/35 34/34/34
f 37/37/37 35/35/35 36/36/36
f 38/38/38 37/37/37 36/36/36
f 39/39/39 37/37/37 38/38/38
f 40/40/40 39/39/39 38/38/38
f 41/41/41 39/39/39 40/40/40
f 42/42/42 41/41/41 40/40/40
f 43/43/43 41/41/41 42/42/42
f 44/44/44 43/43/43 42/42/42
f 45/45/45 43/43/43 44/44/44
f 46/46/46 45/45/45 44/44/44
f 47/47/47 45/45/45 46/46/46
f 48/48/48 47/47/47 46/46/46
f 49/49/49 47/47/47 48/48/48
f 50/50/50 49/49/49 48/48/48
f 51/51/51 49/49/49 50/50/50
f 52/52/52 51/51/51 50/50/50
f 53/53/53 51/51/51 52/52/52
f 54/54/54 53/53/53 52/52/52
f 55/55/55 53/53/53 54/54/54
f 56/56/56 55/55/55 54/54/54
f 57/57/57 55/55/55 56/56/56
f 58/58/58 57/57/57 56/56/56
f 59/59/59 57/57/57 58/58/58
f 60/60/60 59/59/59 58/58/58
f 61/61/61 59/59/59 60/60/60
f 62/62/62 61/61/61 60/60/60
f 63/63/63 61/61/61 62/62/62
f 64/64/64 63/63/63 62/62/62
f 65/65/65 63/63/63 64/64/64
f 66/66/66 65/65/65 64/64/64
f 67/67/67 65/65/65 66/66/66
f 68/68/68 67/67/67 66/66/66
f 69/69/69 67/67/67 68/68/68
f 70/70/70 69/69/69 68/68/68
f 71/71/71 69/69/69 70/70/70
f 72/72/72 71/71/71 70/70/70
f 73/73/73 71/71/71 72/72/72
f 74/74/74 73/73/73 72/72/72
f 75/75/75 73/73/73 74/74/74
f 76/76/76 75/75/75 74/74/74
f 77/77/77 75/75/75 76/76/76
f 78/78/78 77/77/77 76/76/76
f 79/79/79 77/77/77 78/78/78
f 80/80/80 79/79/79 78/78/78
