g Sword_3_Trail
v -0.1588861 0.621663 0.3704253
v 0.02538097 0.621663 0.9605114
v -0.2314926 0.8783409 1.03647
v -0.39872 0.8783401 0.441301
v -0.5246687 1.170632 1.114655
v -0.6762576 1.170655 0.5153142
v -0.8415451 1.499273 1.190209
v -0.9764144 1.499318 0.5868801
v -1.169358 1.864986 1.258072
v -1.284268 1.865056 0.6506134
v -1.495685 2.268493 1.313073
v -1.584555 2.268595 0.7012397
v -1.814782 2.709166 1.353339
v -1.855331 2.712011 0.7301902
v -2.32498 3.183971 1.074913
v -1.769409 3.178882 0.7664261
v -2.415043 3.639512 0.5282029
v -1.792381 3.634888 0.5629079
v -2.272254 4.029164 -0.1298705
v -1.684101 4.025702 0.06981853
v -1.913311 4.303109 -0.9067994
v -1.375006 4.300195 -0.5982482
v -1.314661 4.410634 -1.765443
v -0.8357815 4.408137 -1.371332
v -0.4502205 4.301211 -2.656158
v -0.03965 4.299103 -2.191972
v 0.4211673 3.991615 -3.329451
v 0.7493652 3.986712 -2.801466
v 1.111939 3.546777 -3.634157
v 1.226397 3.539699 -3.015989
v 1.712551 2.989813 -3.552747
v 1.399506 2.988921 -3.005782
v 2.072918 2.354228 -3.143545
v 1.5173 2.354846 -2.865232
v 2.237412 1.665656 -2.644866
v 1.633928 1.665812 -2.508737
v 2.338389 0.9316913 -1.989519
v 1.715551 0.9681987 -2.156199
v -1.121039 0.4544243 2.39521
v -0.5963581 0.4544243 2.722114
v -1.409131 0.2573914 4.020291
v -1.462533 0.4532489 2.949641
v -2.187031 1.036289 2.776724
v -1.642814 1.036257 2.483221
v -2.621935 1.680821 1.90222
v -2.056473 1.680641 1.650866
v -2.951974 2.252538 1.011361
v -2.35576 2.251852 0.8411293
v -3.114773 2.715259 0.09952011
v -2.493432 2.713082 0.06176456
v -3.03951 3.032539 -0.8297246
v -2.43069 3.02778 -0.6876791
v -2.661405 3.167254 -1.752663
v -2.122698 3.160078 -1.427776
v -1.992845 3.091919 -2.451202
v -1.677629 3.079207 -1.889178
v -1.153901 2.818156 -2.630033
v -1.196571 2.814874 -1.998123
v -0.3047467 2.394832 -2.392604
v -0.5606216 2.394586 -1.825599
v 0.5468694 1.858332 -1.897729
v 0.1966915 1.85834 -1.387222
v 1.412615 1.245581 -1.241255
v 1.022425 1.245587 -0.7615779
v 2.553292 0.5377045 -0.2350723
v 1.614498 0.6515833 -0.3112129
v 1.483797 0.6062053 0.5427672
v 1.121337 0.6062054 0.04198887
v -2.785307 0.6640124 2.869595
v -2.422846 0.6640123 3.370373
vt 1 8.940697E-08
vt 0.9999999 1
vt 0.9902001 1
vt 0.9902002 8.89786E-08
vt 0.9790323 1
vt 0.9790324 8.849045E-08
vt 0.966757 1
vt 0.9667571 8.795387E-08
vt 0.953615 1
vt 0.9536151 8.737942E-08
vt 0.9398114 1
vt 0.9398115 8.677604E-08
vt 0.925499 1
vt 0.925499 8.615043E-08
vt 0.911243 1
vt 0.911243 8.552728E-08
vt 0.8953057 1
vt 0.8953057 8.483063E-08
vt 0.8763139 1
vt 0.8763139 8.400048E-08
vt 0.8536872 1
vt 0.8536872 8.301143E-08
vt 0.8267983 1
vt 0.8267984 8.183608E-08
vt 0.7946197 1
vt 0.7946198 8.042952E-08
vt 0.7652109 1
vt 0.7652109 7.914401E-08
vt 0.7442682 1
vt 0.7442683 7.822858E-08
vt 0.7260689 1
vt 0.726069 7.743306E-08
vt 0.7063973 1
vt 0.7063973 7.657319E-08
vt 0.6842828 1
vt 0.6842829 7.560654E-08
vt 0.6606279 1
vt 0.660628 7.457254E-08
vt 0.5133624 6.813536E-08
vt 0.5133623 1
vt 0.4839092 1
vt 0.4839092 6.684792E-08
vt 0.4518346 1
vt 0.4518347 6.54459E-08
vt 0.420913 1
vt 0.420913 6.409427E-08
vt 0.392109 1
vt 0.3921091 6.283521E-08
vt 0.365899 1
vt 0.3658991 6.168953E-08
vt 0.3417236 1
vt 0.3417237 6.063279E-08
vt 0.3172835 1
vt 0.3172835 5.956448E-08
vt 0.2955733 1
vt 0.2955734 5.86155E-08
vt 0.2760313 1
vt 0.2760313 5.776129E-08
vt 0.2524272 1
vt 0.2524272 5.672952E-08
vt 0.223573 1
vt 0.223573 5.546827E-08
vt 0.1906377 1
vt 0.1906378 5.402862E-08
vt 0.1555468 1
vt 0.1555468 5.249475E-08
vt 0.1296223 1
vt 0.1296224 5.136155E-08
vt 0 4.569558E-08
vt 0 1
vn 0.6748934 0.7102543 -0.2001442
vn 0.6748934 0.7102543 -0.2001442
vn 0.6773121 0.7105302 -0.1907755
vn 0.6773118 0.7105302 -0.1907764
vn 0.6899081 0.7026591 -0.1740603
vn 0.6899106 0.7026571 -0.1740585
vn 0.7164561 0.6792907 -0.1589175
vn 0.7164642 0.6792831 -0.1589136
vn 0.7541321 0.6415566 -0.1403209
vn 0.7541471 0.6415406 -0.1403132
vn 0.8011887 0.5886944 -0.107404
vn 0.8012136 0.5886644 -0.1073822
vn 0.8337248 0.5345937 0.1382481
vn 0.83147 0.5291806 0.1691906
vn 0.487766 0.5932084 0.6404594
vn 0.4839522 0.5942487 0.6423851
vn 0.03857046 0.7523382 0.657647
vn 0.03861082 0.7523101 0.6576768
vn -0.1156527 0.8977841 0.4249803
vn -0.1156683 0.8978423 0.4248529
vn -0.09421211 0.9759961 0.1963563
vn -0.09413605 0.9760476 0.1961364
vn 0.004164887 0.9998914 0.0141353
vn 0.004249591 0.9998925 0.01402969
vn 0.1496914 0.982021 -0.1150097
vn 0.1491067 0.9821523 -0.1146475
vn 0.3883922 0.9027933 -0.1847047
vn 0.3905143 0.9018297 -0.1849373
vn 0.6912019 0.7219188 -0.03275946
vn 0.6898355 0.7231447 -0.03447713
vn 0.7256891 0.5553752 0.4061204
vn 0.7295325 0.5568056 0.3971773
vn 0.4425398 0.5313213 0.7223961
vn 0.4467641 0.5306653 0.720275
vn 0.1403774 0.5671278 0.8115789
vn 0.143162 0.5668482 0.8112877
vn -0.007920639 0.8659511 0.5000659
vn -0.007895191 0.8646166 0.5023702
vn 0.01025102 0.9935775 0.1126885
vn 0.01027139 0.9935759 0.1127011
vn 0.2962905 0.928264 0.2248062
vn 0.2987469 0.9272647 0.225678
vn 0.4039326 0.8158178 0.4138596
vn 0.3999515 0.8164938 0.4163853
vn 0.2150467 0.8375988 0.5021785
vn 0.2146768 0.8376995 0.5021687
vn 0.1327326 0.86454 0.4847191
vn 0.1319492 0.86481 0.4844511
vn 0.02927808 0.9113823 0.4105181
vn 0.02827962 0.9119048 0.4094262
vn -0.03563545 0.9683479 0.2470473
vn -0.03576974 0.9686691 0.2457654
vn 0.01594855 0.9988821 0.04450151
vn 0.01890115 0.9990215 0.03998378
vn 0.2247427 0.9723203 -0.0639057
vn 0.2237528 0.9725519 -0.06385465
vn 0.4184112 0.9078619 0.02680911
vn 0.415771 0.909205 0.0219246
vn 0.4511791 0.8734317 0.1831791
vn 0.4516302 0.8735942 0.1812825
vn 0.4180145 0.8665709 0.2726146
vn 0.4182869 0.8665727 0.2721908
vn 0.3137209 0.8620008 0.3981629
vn 0.3151149 0.8621776 0.3966766
vn 0.1434534 0.9488115 0.2813855
vn 0.1442112 0.9480982 0.2833954
vn 0.03470304 0.9990186 0.02752215
vn 0.03468156 0.9990202 0.02749245
vn 0.00970961 0.9999282 -0.007027451
vn 0.00970961 0.9999282 -0.007027451
g Sword_3_Trail_0
f 3/3/3 2/2/2 1/1/1
f 4/4/4 3/3/3 1/1/1
f 5/5/5 3/3/3 4/4/4
f 6/6/6 5/5/5 4/4/4
f 7/7/7 5/5/5 6/6/6
f 8/8/8 7/7/7 6/6/6
f 9/9/9 7/7/7 8/8/8
f 10/10/10 9/9/9 8/8/8
f 11/11/11 9/9/9 10/10/10
f 12/12/12 11/11/11 10/10/10
f 13/13/13 11/11/11 12/12/12
f 14/14/14 13/13/13 12/12/12
f 15/15/15 13/13/13 14/14/14
f 16/16/16 15/15/15 14/14/14
f 17/17/17 15/15/15 16/16/16
f 18/18/18 17/17/17 16/16/16
f 19/19/19 17/17/17 18/18/18
f 20/20/20 19/19/19 18/18/18
f 21/21/21 19/19/19 20/20/20
f 22/22/22 21/21/21 20/20/20
f 23/23/23 21/21/21 22/22/22
f 24/24/24 23/23/23 22/22/22
f 25/25/25 23/23/23 24/24/24
f 26/26/26 25/25/25 24/24/24
f 27/27/27 25/25/25 26/26/26
f 28/28/28 27/27/27 26/26/26
f 29/29/29 27/27/27 28/28/28
f 30/30/30 29/29/29 28/28/28
f 31/31/31 29/29/29 30/30/30
f 32/32/32 31/31/31 30/30/30
f 33/33/33 31/31/31 32/32/32
f 34/34/34 33/33/33 32/32/32
f 35/35/35 33/33/33 34/34/34
f 36/36/36 35/35/35 34/34/34
f 37/37/37 35/35/35 36/36/36
f 38/38/38 37/37/37 36/36/36
f 37/37/37 38/38/38 39/39/39
f 40/40/40 37/37/37 39/39/39
f 41/41/41 40/40/40 39/39/39
f 42/42/42 41/41/41 39/39/39
f 43/43/43 41/41/41 42/42/42
f 44/44/44 43/43/43 42/42/42
f 45/45/45 43/43/43 44/44/44
f 46/46/46 45/45/45 44/44/44
f 47/47/47 45/45/45 46/46/46
f 48/48/48 47/47/47 46/46/46
f 49/49/49 47/47/47 48/48/48
f 50/50/50 49/49/49 48/48/48
f 51/51/51 49/49/49 50/50/50
f 52/52/52 51/51/51 50/50/50
f 53/53/53 51/51/51 52/52/52
f 54/54/54 53/53/53 52/52/52
f 55/55/55 53/53/53 54/54/54
f 56/56/56 55/55/55 54/54/54
f 57/57/57 55/55/55 56/56/56
f 58/58/58 57/57/57 56/56/56
f 59/59/59 57/57/57 58/58/58
f 60/60/60 59/59/59 58/58/58
f 61/61/61 59/59/59 60/60/60
f 62/62/62 61/61/61 60/60/60
f 63/63/63 61/61/61 62/62/62
f 64/64/64 63/63/63 62/62/62
f 65/65/65 63/63/63 64/64/64
f 66/66/66 65/65/65 64/64/64
f 67/67/67 65/65/65 66/66/66
f 68/68/68 67/67/67 66/66/66
f 67/67/67 68/68/68 69/69/69
f 70/70/70 67/67/67 69/69/69
